<?xml version="1.0" encoding="UTF-8"?>
<svg width="14px" height="9px" viewBox="0 0 14 9" version="1.1" xmlns="http://www.w3.org/2000/svg" xmlns:xlink="http://www.w3.org/1999/xlink">
    <!-- Generator: sketchtool 55.2 (78181) - https://sketchapp.com -->
    <title>F27298D1-59D5-46A4-9EE8-3D99FD8C3233@1.5x</title>
    <desc>Created with sketchtool.</desc>
    <g id="Page-1" stroke="none" stroke-width="1" fill="none" fill-rule="evenodd">
        <g id="HOME-" transform="translate(-570.000000, -81.000000)" fill="#a11c2f" fill-rule="nonzero">
            <g id="mainHeader">
                <g id="Main-header">
                    <g transform="translate(0.000000, 58.000000)">
                        <g id="Group-2" transform="translate(326.000000, 17.000000)">
                            <g id="About-us" transform="translate(98.000000, 1.000000)">
                                <path d="M146.579141,7.71764467 L151.962739,13.1012431 C151.968493,13.1072177 151.970263,13.1156265 151.976238,13.1213798 C152.229828,13.3749704 152.56463,13.5008805 152.898989,13.5 C153.233347,13.5008805 153.567928,13.3751916 153.821739,13.1213798 C153.827714,13.1154052 153.829263,13.1072177 153.835238,13.1012431 L159.218836,7.71764467 C159.724468,7.21201262 159.724468,6.38463482 159.218836,5.87922404 C158.713204,5.37381327 157.885826,5.37359199 157.380415,5.87922404 L152.898767,10.3604297 L148.417562,5.87922404 C147.91193,5.37359199 147.084552,5.37359199 146.579141,5.87922404 C146.07373,6.3848561 146.073509,7.2122339 146.579141,7.71764467 Z" id="Inactive_dDMain"></path>
                            </g>
                        </g>
                    </g>
                </g>
            </g>
        </g>
    </g>
</svg>