<?xml version="1.0" encoding="UTF-8"?>
<svg width="51px" height="42px" viewBox="0 0 51 42" version="1.1" xmlns="http://www.w3.org/2000/svg" xmlns:xlink="http://www.w3.org/1999/xlink">
    <!-- Generator: sketchtool 55.2 (78181) - https://sketchapp.com -->
    <title>8ED9B02B-14AF-4119-AB5D-280CA895BB18@1.5x</title>
    <desc>Created with sketchtool.</desc>
    <g id="Page-1" stroke="none" stroke-width="1" fill="none" fill-rule="evenodd">
        <g id="DATA-PORTAL.1" transform="translate(-1219.000000, -219.000000)" fill="#A11C2F" fill-rule="nonzero" stroke="#FFFFFF" stroke-width="">
            <g id="Main-content" transform="translate(0.000000, 116.000000)">
                <g id="BG">
                    <g id="Group-2" transform="translate(426.000000, 75.000000)">
                        <path d="M825.390377,30.8085276 C824.51781,29.933042 822.646322,29.6316986 821.625809,30.6008407 C820.605209,31.5699742 820.6116,33.4091177 821.638764,34.3711691 L833.028352,46.4085788 L797.591012,46.4085788 C796.160082,46.4085788 795,47.5686958 795,48.9996253 C795,50.4306412 796.160082,51.5906373 797.591012,51.5906373 L833.028352,51.5906373 L821.638764,63.628047 C820.611514,64.5900897 820.543543,66.4985428 821.625809,67.3983148 C822.625853,68.229857 824.482659,68.2661311 825.390377,67.1906884 L840.936396,50.780946 C841.596984,50.1184243 842.112655,48.3751914 840.936388,47.2183046 L825.390377,30.8085276 Z" id="blueArrow_borderWhite"></path>
                    </g>
                </g>
            </g>
        </g>
    </g>
</svg>