<?xml version="1.0" encoding="UTF-8"?>
<svg width="27px" height="22px" viewBox="0 0 27 22" version="1.1" xmlns="http://www.w3.org/2000/svg" xmlns:xlink="http://www.w3.org/1999/xlink">
    <!-- Generator: sketchtool 55.2 (78181) - https://sketchapp.com -->
    <title>7FF67AD7-A834-4DD6-8630-C7111584264E@1x</title>
    <desc>Created with sketchtool.</desc>
    <g id="Page-1" stroke="none" stroke-width="1" fill="none" fill-rule="evenodd">
        <g id="ABOUT-US.4" transform="translate(-1247.000000, -463.000000)" fill="#A5A7AC" fill-rule="nonzero">
            <g id="Main-content" transform="translate(0.000000, 116.000000)">
                <g id="People-chunk" transform="translate(425.220000, 22.000000)">
                    <g id="Person-1" transform="translate(1.000000, 247.000000)">
                        <path d="M827.900485,79.5291065 C826.480104,79.5293723 825.312624,80.7003821 825.312478,82.120958 C825.312641,86.2345404 825.309167,90.3398976 825.309167,94.4529603 C825.304317,94.9289479 825.684176,95.3196898 826.160083,95.3267077 C826.64588,95.3338887 827.041925,94.938853 827.036231,94.4529603 L827.036231,83.210614 C827.130874,83.174544 827.238888,83.1405124 827.342347,83.1507339 C827.565254,83.1727536 827.799358,83.2414777 827.963846,83.4062802 C832.914077,88.3653023 837.874849,93.3129029 842.827364,98.2693044 C843.166867,98.6169105 843.726797,98.6153682 844.06529,98.2666931 C844.396845,97.9251713 844.388964,97.3797848 844.04848,97.0471561 C839.09249,92.0945926 834.138897,87.1396095 829.184961,82.1849923 C829.019445,82.0197613 828.954236,81.7836556 828.93281,81.5600426 C828.923018,81.4576851 828.956312,81.3509269 828.991874,81.2572667 C832.739919,81.257172 836.485481,81.2564234 840.233556,81.2564234 C840.709481,81.262005 841.100174,80.8814148 841.10719,80.4054461 C841.113718,79.9195724 840.719386,79.5234713 840.233556,79.5291065 L827.900485,79.5291065 Z" id="Black-arrow" transform="translate(834.809075, 89.029106) scale(-1, 1) rotate(135.000000) translate(-834.809075, -89.029106) "></path>
                    </g>
                </g>
            </g>
        </g>
    </g>
</svg>