<?xml version="1.0" encoding="UTF-8"?>
<svg width="11px" height="19px" viewBox="0 0 11 19" version="1.1" xmlns="http://www.w3.org/2000/svg" xmlns:xlink="http://www.w3.org/1999/xlink">
    <!-- Generator: sketchtool 55.2 (78181) - https://sketchapp.com -->
    <title>F09EFDE7-D8C5-4A8C-9208-F6C35165E474@1.5x</title>
    <desc>Created with sketchtool.</desc>
    <g id="Page-1" stroke="none" stroke-width="1" fill="none" fill-rule="evenodd">
        <g id="DATA-PORTAL.3A---STEP-1_-Landing" transform="translate(-374.000000, -153.000000)" fill="#FFFFFF" fill-rule="nonzero" stroke="#FFFFFF" stroke-width="0.5">
            <g id="Main-content" transform="translate(0.000000, 116.000000)">
                <g id="People-chunk" transform="translate(324.220000, 0.000000)">
                    <g id="Data-Topics" transform="translate(0.780000, 0.000000)">
                        <g id="Internal-Header" transform="translate(50.000000, 20.000000)">
                            <g id="Back">
                                <path d="M2.03601204,18.3618398 C1.64551295,17.9700343 0.807967194,17.8351743 0.35125758,18.2688939 C-0.105490685,18.7026095 -0.102630452,19.5256802 0.35705535,19.9562264 L5.45422994,25.3433204 L5.45422994,27.6624435 L0.35705535,33.0495375 C-0.102669104,33.4800799 -0.133088067,34.3341686 0.35125758,34.736843 C0.798806718,35.1089825 1.62978167,35.1252162 2.03601204,34.6439241 L8.993312,27.300083 C9.28894413,27.003585 9.5197224,26.2234372 8.99330814,25.7056964 L2.03601204,18.3618398 Z" id="icBack_White" transform="translate(4.653715, 26.505534) scale(-1, 1) translate(-4.653715, -26.505534) "></path>
                            </g>
                        </g>
                    </g>
                </g>
            </g>
        </g>
    </g>
</svg>