<?xml version="1.0" encoding="UTF-8"?>
<svg width="64px" height="64px" viewBox="0 0 64 64" version="1.1" xmlns="http://www.w3.org/2000/svg" xmlns:xlink="http://www.w3.org/1999/xlink">
    <!-- Generator: sketchtool 55.2 (78181) - https://sketchapp.com -->
    <title>8ADB8356-B74E-43E1-B91D-86F7384DEF87@1.5x</title>
    <desc>Created with sketchtool.</desc>
    <g id="Page-1" stroke="none" stroke-width="1" fill="none" fill-rule="evenodd">
        <g id="Contact-&amp;-SIGN-UP_success" transform="translate(-953.000000, -466.000000)" fill="#7ED321" fill-rule="nonzero">
            <g id="Group-2" transform="translate(639.000000, 358.000000)">
                <g id="Line-Icons/arrows/circle/check" transform="translate(314.000000, 108.000000)">
                    <polygon id="Shape" points="25.707 46 49.707 21.854 48.293 20.366 25 43.623 13.707 32.312 12.293 33.863 24.293 46"></polygon>
                    <path d="M31.999,64 C31.999,64 32,64 32.0009998,64 C40.549,64 48.584,60.67 54.628,54.627 C60.672,48.584 64,40.547 63.9990002,31.999 C63.9990002,23.451 60.671,15.415 54.627,9.372 C48.584,3.329 40.549,0 32.0009998,0 C32,0 32,0 31.999,0 C23.451,0 15.416,3.329 9.372,9.373 C3.329,15.417 3.55271368e-15,23.453 0.000999774773,32.001 C0.000999774773,40.549 3.329,48.585 9.373,54.628 C15.416,60.671 23.451,64 31.999,64 Z M10.787,10.787 C16.452,5.121 23.986,2 32.0009998,2 C32.002,2 32.002,2 32.003,2 C40.015,2 47.548,5.121 53.214,10.786 C58.88,16.452 62,23.986 61.9990002,31.999 C61.9990002,40.013 58.879,47.547 53.214,53.213 C47.549,58.879 40.015,62 32.0009998,62 L31.999,62 C31.998,62 31.998,62 31.997,62 C23.985,62 16.452,58.879 10.786,53.214 C5.121,47.548 2,40.015 2.00099976,32.001 C2,23.987 5.121,16.453 10.787,10.787 Z" id="Shape"></path>
                </g>
            </g>
        </g>
    </g>
</svg>