<?xml version="1.0" encoding="UTF-8"?>
<svg width="18px" height="21px" viewBox="0 0 18 21" version="1.1" xmlns="http://www.w3.org/2000/svg" xmlns:xlink="http://www.w3.org/1999/xlink">
    <!-- Generator: sketchtool 55.2 (78181) - https://sketchapp.com -->
    <title>61DB98C3-DCD8-4A7F-8510-5AE56E5378C7@1x</title>
    <desc>Created with sketchtool.</desc>
    <g id="Page-1" stroke="none" stroke-width="1" fill="none" fill-rule="evenodd">
        <g id="Data-Portal_KB" transform="translate(-456.000000, -331.000000)" fill="#0D72E8" fill-rule="nonzero">
            <g id="Main-content" transform="translate(-1.000000, 116.000000)">
                <g id="People-chunk" transform="translate(325.220000, 0.000000)">
                    <g id="Data-Topics" transform="translate(0.780000, 0.000000)">
                        <g id="Tile-1" transform="translate(101.000000, 100.000000)">
                            <g id="download-PDF" transform="translate(17.000000, 106.000000)">
                                <path d="M16.1524001,12.1065508 C15.0310469,12.1067607 14.1093526,13.0312421 14.1092367,14.1527494 C14.1093655,17.4003145 14.1066228,20.641386 14.1066228,23.8885407 C14.1027944,24.2643204 14.4026828,24.5728008 14.7783986,24.5783412 C15.1619225,24.5840105 15.47459,24.2721402 15.4700945,23.8885407 L15.4700945,15.0130041 C15.5448125,14.9845278 15.6300868,14.9576607 15.7117651,14.9657304 C15.8877447,14.9831143 16.0725631,15.0373702 16.2024221,15.1674774 C20.1104992,19.0824949 24.0268985,22.9884954 27.936779,26.9014439 C28.2048077,27.1758698 28.6468574,27.1746522 28.9140885,26.8993823 C29.1758423,26.6297599 29.1696203,26.1991916 28.9008173,25.93659 C24.9881936,22.0266714 21.0774623,18.1148427 17.1664604,14.2033028 C17.0357897,14.0728572 16.9843091,13.886458 16.9673942,13.7099214 C16.9596634,13.6291129 16.9859481,13.5448301 17.0140237,13.4708878 C19.973006,13.4708131 22.9300286,13.4702221 25.8890354,13.4702221 C26.2647654,13.4746286 26.5732076,13.1741627 26.5787467,12.7983979 C26.5839006,12.4148134 26.2725851,12.102102 25.8890354,12.1065508 L16.1524001,12.1065508 Z" id="downloadArrow" transform="translate(21.606551, 19.606551) scale(-1, 1) rotate(225.000000) translate(-21.606551, -19.606551) "></path>
                            </g>
                        </g>
                    </g>
                </g>
            </g>
        </g>
    </g>
</svg>