<?xml version="1.0" encoding="UTF-8"?>
<svg width="16px" height="13px" viewBox="0 0 16 13" version="1.1" xmlns="http://www.w3.org/2000/svg" xmlns:xlink="http://www.w3.org/1999/xlink">
    <!-- Generator: sketchtool 55.2 (78181) - https://sketchapp.com -->
    <title>D827AD33-BEC0-4487-9ECD-534D038110F3@1.5x</title>
    <desc>Created with sketchtool.</desc>
    <g id="Page-1" stroke="none" stroke-width="1" fill="none" fill-rule="evenodd">
        <g id="Contact-&amp;-SIGN-UP" transform="translate(-120.000000, -361.000000)" fill="#9D9D9D">
            <g id="Main-content" transform="translate(0.000000, 116.000000)">
                <g id="Menu-left" transform="translate(118.000000, 22.000000)">
                    <g id="Group-3" transform="translate(1.933333, 112.000000)">
                        <g id="contact-details" transform="translate(0.066667, 79.000000)">
                            <g id="email" transform="translate(0.000000, 25.000000)">
                                <path d="M7,14.3857778 L0,10.1111111 L0,17.8605475 C0,18.5022142 1.25687046,19.4444444 1.80687046,19.4444444 L14.1915957,19.4444444 C14.1915957,19.4444444 16,18.5022142 16,17.8605475 L16,10.1111111 L9,14.3857778 C8.5,14.6681111 7.5,14.6681111 7,14.3857778 Z M2.68432872,7 C1.34742896,7 0,7.49076223 0,8.83442338 L8,13.2222222 L16,8.83442339 C16,8.2605139 15.3795713,7 13.2809283,7 L2.68432872,7 Z" id="email-icon"></path>
                            </g>
                        </g>
                    </g>
                </g>
            </g>
        </g>
    </g>
</svg>