<?xml version="1.0" encoding="UTF-8"?>
<svg width="27px" height="27px" viewBox="0 0 27 27" version="1.1" xmlns="http://www.w3.org/2000/svg" xmlns:xlink="http://www.w3.org/1999/xlink">
    <!-- Generator: sketchtool 55.2 (78181) - https://sketchapp.com -->
    <title>99843FBC-812D-45D5-AFF3-F8CEFE67424F_White</title>
    <desc>Created with sketchtool.</desc>
    <g id="Page-1" stroke="none" stroke-width="1" fill="none" fill-rule="evenodd">
        <g id="HOME-" transform="translate(-1252.000000, -1470.000000)">
            <g id="Bottom-filler" transform="translate(0.000000, 1432.000000)">
                <g id="Group-3" transform="translate(1161.000000, 38.000000)">
                    <g id="Socials">
                        <g id="Facebook" transform="translate(91.411765, 0.823529)">
                            <path d="M0,13 C0,5.8202979 5.8202979,0 13,0 C20.1797021,0 26,5.8202979 26,13 C26,20.1797021 20.1797021,26 13,26 C5.8202979,26 0,20.1797021 0,13 Z M14.5869099,19.8877217 L14.5869099,12.9430478 L16.6276232,12.9430478 L16.8980618,10.5498747 L14.5869099,10.5498747 L14.590377,9.3520685 C14.590377,8.72789209 14.6535083,8.39344412 15.6078444,8.39344412 L16.8836153,8.39344412 L16.8836153,6 L14.842613,6 C12.3910411,6 11.5281513,7.16094643 11.5281513,9.11329324 L11.5281513,10.5501457 L10,10.5501457 L10,12.9433188 L11.5281513,12.9433188 L11.5281513,19.8877217 L14.5869099,19.8877217 Z" id="fb" fill="#FFFFFF" opacity="0.64"></path>
                            <path d="M14.5869099,19.8877217 L14.5869099,12.9430478 L16.6276232,12.9430478 L16.8980618,10.5498747 L14.5869099,10.5498747 L14.590377,9.3520685 C14.590377,8.72789209 14.6535083,8.39344412 15.6078444,8.39344412 L16.8836153,8.39344412 L16.8836153,6 L14.842613,6 C12.3910411,6 11.5281513,7.16094643 11.5281513,9.11329324 L11.5281513,10.5501457 L10,10.5501457 L10,12.9433188 L11.5281513,12.9433188 L11.5281513,19.8877217 L14.5869099,19.8877217 Z" id="Path" fill="#23272B"></path>
                        </g>
                    </g>
                </g>
            </g>
        </g>
    </g>
</svg>