<?xml version="1.0" encoding="UTF-8"?>
<svg width="40px" height="40px" viewBox="0 0 40 40" version="1.1" xmlns="http://www.w3.org/2000/svg" xmlns:xlink="http://www.w3.org/1999/xlink">
    <!-- Generator: sketchtool 55.2 (78181) - https://sketchapp.com -->
    <title>1C43E331-DFEB-43D7-8B50-D1FD5695AC10@1.5x</title>
    <desc>Created with sketchtool.</desc>
    <g id="Page-1" stroke="none" stroke-width="1" fill="none" fill-rule="evenodd">
        <g id="ABOUT-US.4" transform="translate(-427.000000, -271.000000)">
            <g id="Main-content" transform="translate(0.000000, 116.000000)">
                <g id="People-chunk" transform="translate(425.220000, 22.000000)">
                    <g id="Hyperlink-chunk" transform="translate(1.780000, 51.000000)">
                        <g id="fb-group" transform="translate(0.000000, 82.000000)">
                            <g id="fb">
                                <rect id="Rectangle-10" stroke="#B9C4D6" fill="#FFFFFF" opacity="0.760509673" x="0.5" y="0.5" width="39" height="39" rx="16"></rect>
                                <g id="Font-Awesome/Brands/fa-twitter" transform="translate(14.000000, 8.000000)" fill="#0D72E8">
                                    <path d="M7.92684641,24 L7.92684641,11.9985949 L11.4534954,11.9985949 L11.9208526,7.86284421 L7.92684641,7.86284421 L7.93283817,5.79286119 C7.93283817,4.71419371 8.0419381,4.13621904 9.69116954,4.13621904 L11.8958869,4.13621904 L11.8958869,0 L8.36873858,0 C4.13206623,0 2.64086742,2.00628403 2.64086742,5.38022287 L2.64086742,7.86331258 L0,7.86331258 L0,11.9990633 L2.64086742,11.9990633 L2.64086742,24 L7.92684641,24 Z" id="Path"></path>
                                </g>
                            </g>
                        </g>
                    </g>
                </g>
            </g>
        </g>
    </g>
</svg>