<?xml version="1.0" encoding="UTF-8"?>
<svg width="26px" height="26px" viewBox="0 0 26 26" version="1.1" xmlns="http://www.w3.org/2000/svg" xmlns:xlink="http://www.w3.org/1999/xlink">
    <!-- Generator: sketchtool 55.2 (78181) - https://sketchapp.com -->
    <title>E6D533CE-13BF-46E5-8219-7375A107A4C7@1.5x</title>
    <desc>Created with sketchtool.</desc>
    <g id="Page-1" stroke="none" stroke-width="1" fill="none" fill-rule="evenodd">
        <g id="HOME-" transform="translate(-1207.000000, -1470.000000)" fill-rule="nonzero">
            <g id="Bottom-filler" transform="translate(0.000000, 1432.000000)">
                <g id="Group-3" transform="translate(1161.000000, 38.000000)">
                    <g id="google-plus" transform="translate(46.000000, 0.000000)">
                        <path d="M13,0 C5.82379032,0 0,5.82379032 0,13 C0,20.1762097 5.82379032,26 13,26 C20.1762097,26 26,20.1762097 26,13 C26,5.82379032 20.1762097,0 13,0 Z M9.65141129,20.25 C5.90625,20.25 2.90141129,17.2288306 2.90141129,13.5 C2.90141129,9.77116935 5.90625,6.75 9.65141129,6.75 C11.3552419,6.75 12.9229839,7.34879032 14.1695565,8.50826613 L12.3405242,10.2828629 C11.6219758,9.58064516 10.6366935,9.24314516 9.65141129,9.24314516 C7.31612903,9.24314516 5.44899194,11.1756048 5.44899194,13.4945565 C5.44899194,15.8135081 7.31068548,17.7459677 9.65141129,17.7459677 C11.4260081,17.7459677 13.1842742,16.70625 13.4673387,14.8445565 L9.65141129,14.8445565 L9.65141129,12.5256048 L16.0149194,12.5256048 C16.0856855,12.8957661 16.1183468,13.2659274 16.1183468,13.6524194 C16.1183468,17.5064516 13.5326613,20.25 9.65141129,20.25 Z M22.1824597,14.4689516 L22.1824597,16.4014113 L20.25,16.4014113 L20.25,14.4689516 L18.3175403,14.4689516 L18.3175403,12.5364919 L20.25,12.5364919 L20.25,10.6040323 L22.1824597,10.6040323 L22.1824597,12.5364919 L24.0985887,12.5364919 L24.0985887,14.4689516 L22.1824597,14.4689516 Z" id="Shape" fill="#FFFFFF" opacity="0.64"></path>
                        <path d="M9.65141129,20.25 C5.90625,20.25 2.90141129,17.2288306 2.90141129,13.5 C2.90141129,9.77116935 5.90625,6.75 9.65141129,6.75 C11.3552419,6.75 12.9229839,7.34879032 14.1695565,8.50826613 L12.3405242,10.2828629 C11.6219758,9.58064516 10.6366935,9.24314516 9.65141129,9.24314516 C7.31612903,9.24314516 5.44899194,11.1756048 5.44899194,13.4945565 C5.44899194,15.8135081 7.31068548,17.7459677 9.65141129,17.7459677 C11.4260081,17.7459677 13.1842742,16.70625 13.4673387,14.8445565 L9.65141129,14.8445565 L9.65141129,12.5256048 L16.0149194,12.5256048 C16.0856855,12.8957661 16.1183468,13.2659274 16.1183468,13.6524194 C16.1183468,17.5064516 13.5326613,20.25 9.65141129,20.25 Z" id="Path" fill="#23272B"></path>
                        <polygon id="Path" fill="#23272B" points="22.1824597 14.4689516 22.1824597 16.4014113 20.25 16.4014113 20.25 14.4689516 18.3175403 14.4689516 18.3175403 12.5364919 20.25 12.5364919 20.25 10.6040323 22.1824597 10.6040323 22.1824597 12.5364919 24.0985887 12.5364919 24.0985887 14.4689516"></polygon>
                    </g>
                </g>
            </g>
        </g>
    </g>
</svg>