<svg xmlns="http://www.w3.org/2000/svg" viewBox="0 0 210.88 26.1"><defs><style>.a,.d{fill:#fff;}.b{fill:#af273e;}.c{fill:#464648;}.d{fill-rule:evenodd;}.e{fill:#d7d7d7;}</style></defs><title>india_center_logo</title><polygon class="a" points="25.68 10.76 25.68 7.44 23.26 7.44 23.26 10.76 21.27 10.76 21.27 2.65 23.26 2.65 23.26 5.71 25.68 5.71 25.68 2.65 27.62 2.65 27.62 10.76 25.68 10.76"/><path class="a" d="M34.09,10.76l-.3-1.25H31.46l-.3,1.25H29l2.42-8.11h2.37l2.42,8.11Zm-1.47-6-.77,3.11H33.4Z"/><path class="a" d="M41.13,10.76,40.05,8h-.74v2.8h-2V2.65h3.32a2.51,2.51,0,0,1,2.63,2.63,2.36,2.36,0,0,1-1.34,2.33l1.39,3.15Zm.12-5.44a.87.87,0,0,0-.9-1h-1v1.9h1A.86.86,0,0,0,41.25,5.32Z"/><polygon class="a" points="46.48 10.76 44.06 2.65 46.17 2.65 47.64 8.47 49.11 2.65 51.22 2.65 48.81 10.76 46.48 10.76"/><path class="a" d="M56,10.76l-.3-1.25H53.38l-.3,1.25H51l2.42-8.11h2.37l2.42,8.11Zm-1.46-6-.78,3.11h1.55Z"/><path class="a" d="M63.05,10.76,62,8h-.74v2.8h-2V2.65h3.32A2.51,2.51,0,0,1,65.2,5.28a2.37,2.37,0,0,1-1.33,2.33l1.38,3.15Zm.13-5.44a.88.88,0,0,0-.91-1h-1v1.9h1A.87.87,0,0,0,63.18,5.32Z"/><path class="a" d="M66.8,10.76V2.65h2.85c2.33,0,3.71,1.68,3.71,4.05S72,10.76,69.65,10.76ZM71.33,6.7c0-1.51-.6-2.33-1.68-2.33h-.91V9.08h.91C70.73,9.08,71.33,8.13,71.33,6.7Z"/><polygon class="a" points="22.61 22.45 22.61 16.02 20.84 16.02 20.84 14.3 26.37 14.3 26.37 16.02 24.6 16.02 24.6 22.45 22.61 22.45"/><polygon class="a" points="33.14 22.45 33.14 19.13 30.73 19.13 30.73 22.45 28.74 22.45 28.74 14.34 30.73 14.34 30.73 17.4 33.14 17.4 33.14 14.34 35.08 14.34 35.08 22.45 33.14 22.45"/><path class="a" d="M40.91,18.4c0-2.51,1.38-4.19,3.62-4.19a3,3,0,0,1,2.9,2.11L45.79,17a1.37,1.37,0,0,0-1.26-1.07c-1,0-1.59,1-1.59,2.46s.6,2.45,1.59,2.45a1.41,1.41,0,0,0,1.26-1.16l1.64.69a3,3,0,0,1-2.9,2.2C42.29,22.58,40.91,20.85,40.91,18.4Z"/><polygon class="a" points="53.77 22.45 53.77 19.13 51.35 19.13 51.35 22.45 49.37 22.45 49.37 14.34 51.35 14.34 51.35 17.4 53.77 17.4 53.77 14.34 55.71 14.34 55.71 22.45 53.77 22.45"/><path class="a" d="M62.79,22.45l-.3-1.25H60.16l-.31,1.25H57.74l2.42-8.11h2.37L65,22.45Zm-1.47-6.08-.78,3.1H62.1Z"/><polygon class="a" points="70.81 22.45 68.31 18.09 68.31 22.45 66.33 22.45 66.33 14.34 68.31 14.34 70.69 18.48 70.69 14.34 72.67 14.34 72.67 22.45 70.81 22.45"/><rect class="a" x="0.91" y="3.04" width="16.05" height="4.92"/><path class="a" d="M16.92,8.3H.91a16.39,16.39,0,0,0,8,13.76A16.36,16.36,0,0,0,16.92,8.3Z"/><path class="a" d="M0,2.05V8.69A17.5,17.5,0,0,0,8.54,22.88l.39.26.39-.26A17.39,17.39,0,0,0,17.87,8.17V2.05ZM17.3,8.21A16.89,16.89,0,0,1,9,22.49l-.09.05-.08-.05A16.89,16.89,0,0,1,.56,8.26V2.65H17.3Z"/><path class="b" d="M16.92,3H.91V8H17V3ZM5.78,6.45H5.61s0,0,0,.08,0,.35,0,.43-.26,0-.35,0h-1c-.13,0-.22,0-.26,0s0,0-.09,0a.32.32,0,0,1-.3,0S3.5,7,3.45,7H2.33c-.17,0-.47,0-.52-.09s.05-.34,0-.43,0-.09-.08-.09-.31,0-.35-.17.09-.3.35-.3h0a1.42,1.42,0,0,0,.09-.65V4.76c-.26,0-.48,0-.44-.3s.13-.21.39-.17,0-.48.13-.56.17,0,.26,0h.09s.13,0,.21,0,0,0,.09,0,.17,0,.26,0a3.18,3.18,0,0,1,.69,0,1.26,1.26,0,0,1,.26.13s.08,0,.13-.09a1.07,1.07,0,0,1,.39-.09,2.09,2.09,0,0,0,.56,0c.13,0,.21-.08.26,0,.21,0,.47-.08.56,0s0,.26,0,.43v0s0,0,0,0h.13c.13,0,.26.12.22.3s-.22.13-.43.17c0,.09,0,.17,0,.26v.86c0,.17.17,0,.34.13S6.08,6.49,5.78,6.45Zm4.88,0h-.17c-.05,0-.05,0-.05.08s.05.35,0,.43-.26,0-.35,0H9.11c-.13,0-.22,0-.26,0s0,0-.09,0a.32.32,0,0,1-.3,0c-.05,0-.05-.08-.09-.08H7.21c-.18,0-.48,0-.52-.09s0-.34,0-.43,0-.09-.09-.09-.3,0-.34-.17.08-.3.34-.3h.05a1.59,1.59,0,0,0,.08-.65V4.76c-.26,0-.47,0-.43-.3s.13-.21.39-.17,0-.48.13-.56.17,0,.26,0h.08a.4.4,0,0,0,.22,0s0,0,.09,0,.17,0,.25,0a3.17,3.17,0,0,1,.69,0,.9.9,0,0,1,.26.13s.09,0,.13-.09a1.12,1.12,0,0,1,.39-.09,1.54,1.54,0,0,0,.48,0c.13,0,.21-.08.26,0,.21,0,.47-.08.56,0s0,.26,0,.43v0s0,0,0,0h.13c.13,0,.26.12.22.3s-.22.13-.43.17c-.05.09,0,.17,0,.26v.86c0,.17.17,0,.34.13S11,6.49,10.66,6.45Zm5.52,0H16s0,0,0,.08,0,.35,0,.43-.26,0-.35,0H14.24c-.13,0-.22,0-.26,0s0,0-.08,0a.34.34,0,0,1-.31,0s0-.08-.08-.08H12.13c-.18,0-.48,0-.52-.09s0-.34,0-.43,0-.09-.09-.09-.3,0-.34-.17.08-.3.34-.3h.05a1.59,1.59,0,0,0,.08-.65V4.76c-.26,0-.47,0-.43-.3s.13-.21.39-.17,0-.48.13-.56.17,0,.26,0h.08a.4.4,0,0,0,.22,0s0,0,.08,0,.18,0,.26,0a5.53,5.53,0,0,1,.91,0,.9.9,0,0,1,.26.13s.09,0,.13-.09a1.07,1.07,0,0,1,.39-.09,5.4,5.4,0,0,0,.9,0c.13,0,.22-.08.26,0,.22,0,.48-.08.56,0s0,.26.05.43v0s0,0,0,0h.13c.13,0,.26.12.21.3s-.21.13-.43.17c0,.09,0,.17,0,.26v.86c.05.17.18,0,.35.13S16.48,6.49,16.18,6.45Z"/><path class="c" d="M.52,2.65V8.21A16.89,16.89,0,0,0,8.8,22.49l.09.05L9,22.49A16.89,16.89,0,0,0,17.26,8.21V2.65ZM8.93,22.11a16.62,16.62,0,0,1-8-13.77h16C16.83,14,14,18.83,8.93,22.11ZM16.92,8H.91V3H17V8ZM1.64,6c-.26,0-.39,0-.35.3s.13.18.35.18.09,0,.09.08-.05.3,0,.43.34.09.51.09H3.37s.08.09.08.09a.39.39,0,0,0,.3,0s0,0,.09,0,.13,0,.26,0h1a.88.88,0,0,0,.34,0,1.54,1.54,0,0,0,0-.43c0-.09,0-.09,0-.09H5.7c.3,0,.3-.26.13-.43s-.31,0-.35-.13V4.81c.22,0,.35,0,.43-.18a.23.23,0,0,0-.21-.3H5.57c-.05,0-.05,0-.05,0v0c0-.13.05-.35,0-.44s-.34,0-.56,0-.17,0-.26,0a2.62,2.62,0,0,1-.56,0,.93.93,0,0,0-.39.09s-.13,0-.13.08-.17-.13-.26-.13a4,4,0,0,0-.69,0c-.08,0-.21-.08-.26,0s0,0-.08,0H1.73c-.18.09,0,.44-.13.56s-.35,0-.39.18.17.3.43.3v.52c.09.21.13.51,0,.6Zm1.77.69h0c-.39,0-.69,0-1.08,0-.09-.13.13-.26.21-.26a5.73,5.73,0,0,0,.82,0,.25.25,0,0,1,.18.08C3.54,6.62,3.45,6.62,3.41,6.66ZM5.14,3.9a.18.18,0,0,1,.3,0c.08.09-.05.39.08.47h.22c.09,0,0,0,.13,0s0,.21-.09.26H5.57c-.13,0-.13.17-.13.34a6,6,0,0,0,0,1c0,.17.21,0,.34.09s.09.08.09.13c0,.3-.39.08-.43.26s0,.25,0,.38-.09.09-.18.13H4c-.09,0,0-.08,0-.13s0,0,0-.08h.82c.13,0,.35,0,.39,0V4.16c.08-.13,0-.17,0-.26ZM5,4S5,4,5,4s.08,0,.08,0a.21.21,0,0,1,.09.13,3,3,0,0,1,0,.6v.31c0,.43,0,1.38,0,1.46s0,.09,0,0S5,6.36,5,6.27Zm0,2.5s0,0,0,.09-.22,0-.3,0H3.88c-.08,0,0-.13,0-.17s.69,0,1-.09C4.92,6.4,5,6.45,5,6.53ZM3.67,5.24V4.12a.3.3,0,0,1,0-.18,1.27,1.27,0,0,1,.22-.13,3.42,3.42,0,0,1,.64,0s.09,0,.13,0,.09,0,.13.13V6.32a.85.85,0,0,1-.34.08H3.88s0,0-.13,0-.08.08-.13,0,0-.22,0-.3A7.31,7.31,0,0,0,3.67,5.24Zm.17,1.51s0,0,0,.13,0,.13,0,.17a.17.17,0,0,1-.13,0s-.09,0-.13,0,0,0-.08,0,0,0-.09-.09V6.88c0-.09,0-.18.13-.22h0C3.62,6.62,3.8,6.62,3.84,6.75ZM2.42,6V4.12c0-.09,0-.22,0-.26h0a.21.21,0,0,1,.13-.09h.3c.09,0,.09,0,.22,0s.08,0,.13,0A.44.44,0,0,1,3.62,4V5.71a1.73,1.73,0,0,1,0,.69.7.7,0,0,1-.26-.08c-.21-.05-.47,0-.69,0s-.17-.05-.17-.09S2.42,6.1,2.42,6ZM2.24,3.94s.09,0,.09.05V5.67a1.81,1.81,0,0,1,0,.69s-.09.13-.18.13c0-.56,0-1.08,0-1.47V4.33C2.11,4.16,2.16,3.94,2.24,3.94ZM1.81,6v-.6a3.3,3.3,0,0,0,0-.69c-.13-.09-.3,0-.39-.09a.16.16,0,0,1,.13-.22c.13,0,.22,0,.26-.08a1,1,0,0,0,0-.35c0-.08.09-.08.09-.08s.21,0,.25,0,0,0,0,.09,0,0,0,.08a2.62,2.62,0,0,0,0,.56V6.27c0,.13-.09.48,0,.52a1,1,0,0,0,.35,0h.77c.09,0,.09,0,.13.09s0,.13-.08.13H1.86c-.09,0-.09-.13-.09-.22s.09-.3,0-.39-.13,0-.26,0-.09-.08-.13-.13,0-.13.08-.13.05,0,.13,0S1.81,6.1,1.81,6Zm.74-1.29h0V4.59H3v.09H3c-.09,0-.09,0-.09.08a.14.14,0,0,0,0,.09l.18.65.17-.65v0a.09.09,0,0,0-.09-.09h0V4.63H3.5v.09h0a.09.09,0,0,0-.09.09s0,.08,0,.17l-.31.9H3l-.3-1C2.63,4.68,2.63,4.68,2.55,4.68Zm10,.26h-.08l0-.39h0s.05,0,.05,0h.69a0,0,0,0,0,0,0h0l.05.39h-.09c0-.22,0-.22-.13-.22H13v.86c0,.13,0,.18.13.18h0v.08h-.52V5.76h0c.08,0,.13,0,.13-.18V4.72h-.13c-.13,0-.18,0-.18.22Zm-7.85.9H3.88V5.76h.05c.08,0,.08,0,.08-.18V4.85c0-.13,0-.17-.08-.17h0V4.59h.73v.3h0c0-.17,0-.17-.09-.17H4.27v.43h.17c.09,0,.09,0,.13-.13h.09v.43H4.57v0c0-.09,0-.13-.08-.13H4.32v.43h.21c.09,0,.13,0,.17-.21h0Zm10.27-.26a.38.38,0,0,0-.13-.26l-.08,0c-.09,0-.13-.09-.13-.13a.39.39,0,0,1-.09-.21.31.31,0,0,1,.3-.35.27.27,0,0,1,.17,0h0l0,.35H15c0-.17-.13-.26-.21-.26s-.13,0-.13.13,0,.13.13.17l0,.05,0,0,.09.08a.53.53,0,0,1,.17.35c0,.22-.13.39-.3.39a.3.3,0,0,1-.17,0h0v0h-.05l0-.39h.09c0,.17.13.3.21.3S14.93,5.67,14.93,5.58ZM11.48,6c-.26,0-.39,0-.35.3s.13.18.35.18.09,0,.09.08-.05.3,0,.43.34.09.51.09h1.38s.09.09.09.09a.39.39,0,0,0,.3,0c.05,0,.05,0,.09,0s.17,0,.26,0h1.38a.88.88,0,0,0,.34,0c.05-.09,0-.31,0-.43s.05-.09.05-.09h.17c.3,0,.3-.26.13-.43s-.3,0-.35-.13V4.81c.22,0,.35,0,.44-.18a.24.24,0,0,0-.22-.3H16s0,0,0,0v0c-.05-.13,0-.35-.05-.44s-.34,0-.56,0-.17,0-.26,0a6.75,6.75,0,0,1-.9,0,.9.9,0,0,0-.39.09.23.23,0,0,0-.13.08c-.09,0-.17-.13-.26-.13a6.87,6.87,0,0,0-.91,0c-.08,0-.21-.08-.25,0s0,0-.09,0h-.56c-.17.09,0,.44-.13.56s-.35,0-.39.18.17.3.43.3v.52c.05.21.09.51,0,.6Zm2,.69h0c-.39,0-.91,0-1.29,0-.09-.13.13-.26.21-.26a9.05,9.05,0,0,0,1,0,.46.46,0,0,1,.21.08C13.59,6.62,13.51,6.62,13.46,6.66Zm.39.39s0,0-.08,0-.09,0-.13,0-.05,0-.09,0L13.46,7V6.88c0-.09,0-.18.13-.22h0c.09,0,.26,0,.31.09s0,0,0,.13S13.9,7,13.85,7.05ZM15.58,3.9a.18.18,0,0,1,.3,0c.09.09,0,.39.09.47h.21c.05,0,0,0,.09,0s0,.21-.09.26H16c-.13,0-.13.17-.13.34a7.52,7.52,0,0,0,0,1c0,.17.22,0,.35.09s.08.08.08.13c.05.3-.39.08-.43.26s0,.25,0,.38-.09.09-.17.13H14.07c-.09,0-.05-.08-.05-.13s0,0,.05-.08h1.21c.13,0,.34,0,.38,0V4.16c0-.13-.08-.17-.08-.26ZM15.36,4s0,0,.05,0,.08,0,.08,0a.21.21,0,0,1,.09.13,3,3,0,0,1,0,.6v.31c0,.43,0,1.38,0,1.46s0,.09,0,0-.18-.22-.18-.31C15.36,5.28,15.41,4.89,15.36,4Zm.05,2.5s0,0,0,.09-.22,0-.3,0H13.94a.14.14,0,0,1,0-.17c.08-.13,1,0,1.34-.09C15.36,6.4,15.36,6.45,15.41,6.53ZM12.26,6V3.86h0s.08-.09.12-.09h.26l.44,0s.08,0,.12,0a.44.44,0,0,1,.39.22v.26h.09V4.07a.27.27,0,0,1,0-.17,1.06,1.06,0,0,1,.22-.13,8.17,8.17,0,0,1,1,0s.09,0,.13,0,.09,0,.13.13V6.27a.72.72,0,0,1-.35.09H13.9c-.05,0-.05,0-.13,0s-.09.09-.13,0,0-.22,0-.31h-.09a.83.83,0,0,1,0,.31.62.62,0,0,1-.26-.09c-.22,0-.69,0-.91,0s-.17,0-.17-.09S12.26,6.1,12.26,6Zm-.18-2.07c.05,0,.09,0,.09.05V5.67a1.81,1.81,0,0,1,0,.69c-.05,0-.09.13-.18.13,0-.56,0-1.08,0-1.47V4.33C12,4.16,12,3.94,12.08,3.94Zm-.43,2v-.6a1.81,1.81,0,0,0,0-.69c-.13-.09-.3,0-.39-.09s.09-.22.13-.22.22,0,.26-.08a1,1,0,0,0,0-.35c0-.08.08-.08.08-.08s.22,0,.26,0,0,0,0,.09,0,0,0,.08a1.06,1.06,0,0,0,0,.56V6.27c0,.13-.09.48,0,.52a1,1,0,0,0,.35,0h1c.08,0,.08,0,.13.09s0,.13-.05.13H11.74c-.09,0-.09-.13-.09-.22s.09-.3,0-.39-.13,0-.26,0-.13-.08-.13-.13,0-.13.09-.13,0,0,.13,0S11.65,6.1,11.65,6Zm2.07-.21h0c-.13,0-.13,0-.13-.09V5.58l.05-.21h.26l0,.21v.09s0,.09-.09.09h0v.08h.47V5.76h0c-.08,0-.08,0-.13-.18l-.25-1h-.22v.09l-.22,1c0,.13,0,.17-.13.17h0v.08h.39V5.76Zm.09-.91.13.43h-.22Zm.69,9c-.17-.13-.39-.22-.43-.31s-.09-.26-.13-.38a2.27,2.27,0,0,0-.17-.35c-.13-.17-.48-.39-.52-.22a2.41,2.41,0,0,1-.39.57,1.88,1.88,0,0,1-.6.3c-.18,0-2.25.08-2.38,0a.16.16,0,0,1-.13-.17,16.12,16.12,0,0,1,.05-2,1.6,1.6,0,0,1,.43-.52c.21-.17.6-.21.6-.39s-.3-.38-.47-.47-.56-.13-.65-.22-.22-.3-.35-.47a4.07,4.07,0,0,0-.43-.43,4.07,4.07,0,0,0-.43.43c-.13.17-.26.43-.34.47s-.39.09-.65.22-.48.35-.48.47.39.22.61.39a1,1,0,0,1,.43.52,15.81,15.81,0,0,1,0,2s0,.17-.13.17a23.62,23.62,0,0,1-2.37,0,3.36,3.36,0,0,1-.6-.3,1.93,1.93,0,0,1-.39-.57c-.09-.17-.39.05-.52.22a1.05,1.05,0,0,0-.17.35c-.05.12-.05.3-.13.38s-.3.18-.43.31a1.73,1.73,0,0,0-.48.56c0,.08.35.34.43.43a3.56,3.56,0,0,0,.52.3s.09.39.17.56.35.48.52.52.26.08.3,0a3.5,3.5,0,0,0,.26-.52,2.14,2.14,0,0,1,.52-.52,1.8,1.8,0,0,1,.73-.13H7.9s.26,0,.26.22V18a1.19,1.19,0,0,1-.31.78,2.07,2.07,0,0,1-.82.52c-.13,0,0,.17,0,.26a1.44,1.44,0,0,0,.43.34,2,2,0,0,0,.6.22c.13,0,.22.26.3.43a1.79,1.79,0,0,0,.57.65,1.78,1.78,0,0,0,.56-.65c.08-.13.17-.39.3-.43a1.93,1.93,0,0,0,.6-.22,3.23,3.23,0,0,0,.43-.34c.09-.13.18-.22.05-.26a1.71,1.71,0,0,1-.82-.52A1.24,1.24,0,0,1,9.8,18V15.29a.24.24,0,0,1,.25-.22h1.56a2,2,0,0,1,.73.13,1.52,1.52,0,0,1,.52.52l.26.52s.13,0,.3,0,.43-.35.52-.52a2.85,2.85,0,0,0,.17-.56s.35-.17.52-.3.47-.35.43-.43A3,3,0,0,0,14.5,13.87ZM4.44,13.3a1.54,1.54,0,0,1,.13-.17h.09s.13.13.13.17a.57.57,0,0,1,.09.31,1.12,1.12,0,0,1-.09.39,1,1,0,0,1-.09.25.83.83,0,0,0,0,.22v.13l0,0s0,0,0,0v-.13a.65.65,0,0,0,0-.22A.69.69,0,0,0,4.44,14a1.12,1.12,0,0,1-.08-.39A.58.58,0,0,1,4.44,13.3Zm.44,1.43a.09.09,0,0,1,.08.08.09.09,0,0,1-.08.09H4.36a.09.09,0,1,1,0-.17h.52ZM4,14.25H3.88a.1.1,0,0,0-.08.09.19.19,0,0,0,0,.13.59.59,0,0,1-.13-.09s0-.08,0-.17A.22.22,0,0,1,3.67,14a.44.44,0,0,1,.3-.13.36.36,0,0,1,.22,0,.61.61,0,0,1,.21.26s0,.13.09.21,0,.18,0,.22,0,0-.09,0v0c0-.05,0-.05,0-.09s-.09-.13-.13-.17A.51.51,0,0,0,4,14.25Zm.91,1c-.09,0-.13,0-.17-.05v.13c0,.05,0,.09,0,.13H4.62a.17.17,0,0,1,0-.13V15.2c0,.05-.13.05-.17.05s-.17-.05-.13-.05a.21.21,0,0,0,.17-.13L4.53,15h.35l.08.08a2,2,0,0,0,.18.13A1.88,1.88,0,0,1,4.92,15.25Zm.78-1s0,.13,0,.17a.42.42,0,0,1-.13.09.22.22,0,0,0,0-.13s0-.09-.09-.09H5.26s-.08,0-.17.09-.13.13-.13.17,0,.05,0,.09v0s-.09,0-.09,0v-.21a.34.34,0,0,1,.09-.22A.62.62,0,0,1,5.14,14a.32.32,0,0,1,.21,0,.49.49,0,0,1,.3.13S5.7,14.12,5.7,14.21Zm3.66-4.1a.36.36,0,0,1,.22,0,.49.49,0,0,1,.3.13c0,.09.09.13.09.21s0,.13,0,.18a.16.16,0,0,1-.13.08.34.34,0,0,1-.05-.13s0-.08-.08-.08H9.54a.22.22,0,0,0-.18.08c0,.05-.13.09-.13.18s0,0,0,.08v0s-.08,0-.08,0v-.22a.36.36,0,0,1,.08-.22A.4.4,0,0,1,9.36,10.11ZM9,19.47v.13l-.05,0s0,0,0,0v-.13a.61.61,0,0,0,0-.21c0-.09,0-.13-.09-.26a1.12,1.12,0,0,1-.09-.39.51.51,0,0,1,.09-.3c0-.09.13-.17.17-.17H9s.13.13.13.17a.51.51,0,0,1,.08.3,2.57,2.57,0,0,1-.17.65A.28.28,0,0,0,9,19.47Zm.17.26a.09.09,0,0,1,0,.18H8.63a.09.09,0,1,1,0-.18h.52ZM9,15.2v.13c0,.05,0,.09,0,.13H8.89a.19.19,0,0,1,0-.13V15.2a.25.25,0,0,1-.18.05c-.08,0-.17-.05-.13-.05a.23.23,0,0,0,.18-.13L8.8,15h.31l.08.08a1.92,1.92,0,0,0,.17.13c.05,0,0,.05-.13.05S9.06,15.25,9,15.2Zm.17-.3H8.67a.09.09,0,0,1-.08-.09.09.09,0,0,1,.08-.08h.52a.09.09,0,1,1,0,.17ZM9,14.47v.13l-.05,0a0,0,0,0,1,0,0v-.13a.65.65,0,0,0,0-.22c0-.08,0-.13-.09-.25s-.09-.26-.09-.39a.57.57,0,0,1,.09-.31c0-.08.13-.17.17-.17H9s.13.13.13.17a.58.58,0,0,1,.08.31,1.12,1.12,0,0,1-.08.39,1,1,0,0,1-.09.25A.31.31,0,0,0,9,14.47Zm0-3.06v.13s0,.08,0,.13l-.05,0a0,0,0,0,1,0,0,.22.22,0,0,1,0-.13v-.13a.3.3,0,0,1-.18,0c-.08,0-.17,0-.13,0a.38.38,0,0,0,.18-.09l.08-.09h.35l.08.09a.38.38,0,0,0,.18.09s-.05,0-.13,0S9.06,11.45,9,11.41ZM8.54,11a.11.11,0,0,1,.09-.09h.52a.1.1,0,0,1,.08.09.09.09,0,0,1-.08.08H8.63A.1.1,0,0,1,8.54,11Zm.18-1.51c0-.09.13-.17.17-.17H9s.13.13.13.17a.51.51,0,0,1,.08.3,1.12,1.12,0,0,1-.08.39c0,.13,0,.17-.09.26a.79.79,0,0,0,0,.21v.13l-.05,0s0,0,0,0v-.13a.61.61,0,0,0,0-.21c0-.09,0-.13-.09-.26a1.12,1.12,0,0,1-.09-.39A.31.31,0,0,1,8.72,9.51Zm-.69,1a.2.2,0,0,0,0,.13l-.13-.08c0-.05,0-.09,0-.18a.23.23,0,0,1,.09-.21.49.49,0,0,1,.3-.13.32.32,0,0,1,.21,0,.68.68,0,0,1,.22.26.67.67,0,0,0,.09.22c0,.08,0,.17,0,.21s-.05,0-.09,0v0s0,0,0-.09a1.92,1.92,0,0,1-.13-.17c-.09,0-.13-.09-.17-.09H8.16C8.11,10.5,8.07,10.5,8,10.54Zm0,3.8a.22.22,0,0,0,0,.13.42.42,0,0,1-.13-.09c-.05,0-.05-.08-.05-.17A.22.22,0,0,1,7.94,14a.44.44,0,0,1,.3-.13.36.36,0,0,1,.22,0,.61.61,0,0,1,.21.26.29.29,0,0,1,.09.21c0,.09,0,.18,0,.22s0,0-.09,0v0c0-.05,0-.05,0-.09s-.09-.13-.13-.17-.13-.09-.17-.09H8.2C8.11,14.25,8.11,14.3,8.07,14.34Zm.22,4.92H8.16a.09.09,0,0,0-.09.08.24.24,0,0,0,0,.13.55.55,0,0,1-.13-.08c-.05-.05-.05-.09-.05-.18A.23.23,0,0,1,7.94,19a.49.49,0,0,1,.3-.13.36.36,0,0,1,.22,0,.75.75,0,0,1,.21.26,1,1,0,0,0,.09.22c0,.08,0,.17,0,.21s0,0-.09,0v0s0,0,0-.09-.09-.13-.13-.17A.49.49,0,0,0,8.29,19.26Zm.94,1a.23.23,0,0,1-.17,0v.13s0,.08,0,.13H8.93a.22.22,0,0,1,0-.13v-.13a.27.27,0,0,1-.17,0c-.09,0-.18,0-.13,0a.35.35,0,0,0,.17-.09L8.85,20h.26l.08.09a.35.35,0,0,0,.17.09A.19.19,0,0,1,9.23,20.25ZM9.88,19c0,.09.09.13.09.21s0,.13,0,.18l-.13.08a.2.2,0,0,0-.05-.13s0-.08-.08-.08H9.54a.22.22,0,0,0-.18.08c0,.05-.13.13-.13.18s0,0,0,.08v0s-.08,0-.08,0v-.22a.36.36,0,0,1,.08-.22A.59.59,0,0,1,9.41,19c0-.05.13-.05.21-.05S9.84,19,9.88,19ZM10,14.21s0,.13,0,.17a.59.59,0,0,1-.13.09.19.19,0,0,0-.05-.13s0-.09-.08-.09H9.54s-.09,0-.18.09-.13.13-.13.17,0,.05,0,.09v0s-.08,0-.08,0v-.21a.34.34,0,0,1,.08-.22A.62.62,0,0,1,9.41,14s.13,0,.21,0a.56.56,0,0,1,.31.13A.13.13,0,0,1,10,14.21Zm3-.91c0-.08.13-.17.17-.17h.09l.17.17a.57.57,0,0,1,.09.31,1.12,1.12,0,0,1-.09.39,1,1,0,0,1-.09.25.83.83,0,0,0,0,.22v.13l0,0s-.05,0-.05,0v-.13a.65.65,0,0,0,0-.22.87.87,0,0,0-.08-.25c0-.09-.09-.26-.09-.39A.26.26,0,0,1,13,13.3Zm.43,1.43a.09.09,0,1,1,0,.17H12.9a.09.09,0,0,1-.08-.09.09.09,0,0,1,.08-.08h.52Zm-.86-.48h-.13a.1.1,0,0,0-.09.09.22.22,0,0,0,0,.13.42.42,0,0,1-.13-.09s0-.08,0-.17a.23.23,0,0,1,.08-.21.47.47,0,0,1,.3-.13c.09,0,.18,0,.22,0a.63.63,0,0,1,.22.26.71.71,0,0,0,.08.21c0,.09.05.18,0,.22s0,0-.08,0v0c0-.05,0-.05,0-.09a1.92,1.92,0,0,0-.13-.17A.5.5,0,0,0,12.56,14.25Zm.9,1c-.08,0-.13,0-.17-.05v.13c0,.05,0,.09,0,.13h-.09a.19.19,0,0,1,0-.13V15.2c0,.05-.13.05-.17.05s-.18-.05-.13-.05a.22.22,0,0,0,.17-.13l.09-.08h.34l.09.08a1.92,1.92,0,0,0,.17.13A1.49,1.49,0,0,1,13.46,15.25Zm.74-.87a.59.59,0,0,1-.13.09.19.19,0,0,0-.05-.13s0-.09-.08-.09h-.13s-.09,0-.17.09-.13.13-.13.17,0,.05,0,.09v0s-.08,0-.08,0v-.21a.34.34,0,0,1,.08-.22.7.7,0,0,1,.22-.26s.13,0,.22,0a.56.56,0,0,1,.3.13.46.46,0,0,1,.08.21S14.2,14.34,14.2,14.38ZM6.6,6c-.26,0-.39,0-.34.3s.13.18.34.18.09,0,.09.08,0,.3,0,.43.34.09.52.09H8.37s.09.09.09.09a.39.39,0,0,0,.3,0s0,0,.09,0,.13,0,.26,0h.94a.91.91,0,0,0,.35,0c.09-.09,0-.31,0-.43s.05-.09.05-.09h.17c.3,0,.3-.26.13-.43s-.3,0-.35-.13V4.81c.22,0,.35,0,.43-.18a.23.23,0,0,0-.21-.3h-.13s0,0,0,0v0c-.05-.13,0-.35-.05-.44s-.34,0-.56,0c0-.09-.17,0-.26,0a1.85,1.85,0,0,1-.47,0,.93.93,0,0,0-.39.09s-.13,0-.13.08a.49.49,0,0,0-.26-.13,3.94,3.94,0,0,0-.69,0c-.09,0-.21-.08-.26,0s0,0-.08,0H6.78c-.18.09,0,.44-.13.56s-.35,0-.39.18.17.3.43.3v.52c0,.21,0,.51-.09.6Zm1.77.69h0c-.39,0-.69,0-1.12,0-.13-.13.13-.26.21-.26a6.09,6.09,0,0,0,.82,0,.21.21,0,0,1,.17.08C8.5,6.62,8.41,6.62,8.37,6.66ZM10,3.9a.18.18,0,0,1,.3,0c.09.09,0,.39.09.47h.22c.08,0,0,0,.13,0s0,.21-.09.26h-.17c-.13,0-.13.17-.13.34a6,6,0,0,0,0,1c0,.17.21,0,.34.09s.09.08.09.13c0,.3-.39.08-.43.26s0,.25,0,.38-.09.09-.18.13H9c-.09,0-.05-.08-.05-.13s0,0,.05-.08h.73c.13,0,.34,0,.39,0V4.16c0-.13,0-.17-.09-.26ZM9.84,4s0,0,0,0S10,4,10,4a.23.23,0,0,1,.08.13,2.41,2.41,0,0,1,0,.6v.31a13.76,13.76,0,0,1,0,1.46s0,.09,0,0-.17-.22-.17-.31Zm0,2.5s0,0,0,.09-.22,0-.31,0H8.85c-.09,0,0-.13,0-.17s.6,0,.9-.09C9.8,6.4,9.84,6.45,9.88,6.53ZM8.67,5.24V4.12a.25.25,0,0,1,.05-.18,1.6,1.6,0,0,1,.21-.13,2.62,2.62,0,0,1,.56,0s.09,0,.13,0,.09,0,.13.13V6.32a.85.85,0,0,1-.34.08H8.89s0,0-.13,0-.09.08-.13,0,0-.22,0-.3A9.12,9.12,0,0,0,8.67,5.24ZM8.8,6.75s0,0,0,.13,0,.13,0,.17a.16.16,0,0,1-.13,0s-.08,0-.13,0,0,0-.08,0L8.37,7V6.88c0-.09,0-.18.13-.22h0C8.59,6.62,8.76,6.62,8.8,6.75ZM7.38,6V3.86h0a.21.21,0,0,1,.13-.09h.17c.09,0,.22,0,.3,0s.09,0,.13,0A.45.45,0,0,1,8.5,4V5.71h0l-.05,0s-.08-.13-.12-.17l0-.09c0-.09-.08-.13-.08-.17s.17-.17.17-.35a.28.28,0,0,0-.17-.3.51.51,0,0,0-.26,0,1.17,1.17,0,0,0-.35,0h0v.09h0c.09,0,.09,0,.09.17v.73c0,.13,0,.18-.09.18h0v.08H8V5.76h0c-.09,0-.09,0-.09-.18V5.32h.09A1.48,1.48,0,0,1,8,5.5l0,.08a.46.46,0,0,0,.13.22s.13,0,.21,0h.05a2.51,2.51,0,0,1-.05.61.63.63,0,0,1-.25-.09c-.22,0-.48,0-.74,0-.08,0-.17,0-.17-.09A.29.29,0,0,0,7.38,6ZM8.2,4.94c0,.21-.09.3-.26.3h0V4.68h0C8.11,4.63,8.2,4.76,8.2,4.94Zm-1-1s.08,0,.08.05V5.67c0,.26,0,.56,0,.69s-.09.13-.17.13A14.31,14.31,0,0,1,7.08,5V4.33C7.08,4.16,7.12,3.94,7.21,3.94ZM6.78,6v-.6a2.65,2.65,0,0,0,0-.69c-.13-.09-.3,0-.39-.09s.09-.22.13-.22.22,0,.26-.08,0-.26,0-.35,0-.08.09-.08.21,0,.26,0,0,0,0,.09,0,0,0,.08a1.32,1.32,0,0,0,0,.56V6.27c0,.13-.09.48,0,.52a1,1,0,0,0,.35,0h.78s.08,0,.13.09S8.29,7,8.2,7H6.82c-.09,0-.09-.13-.09-.22s.09-.3,0-.39-.13,0-.26,0-.13-.08-.13-.13,0-.13.09-.13,0,0,.13,0S6.73,6.1,6.78,6Zm2.67-.13H9V5.76H9c.09,0,.09,0,.09-.18V4.85c0-.13,0-.17-.09-.17H9V4.59h.43v.09h0c-.09,0-.09,0-.09.17v.73c0,.13.05.18.09.18h0Z"/><ellipse class="a" cx="26.67" cy="21.72" rx="0.67" ry="0.73"/><ellipse class="a" cx="37.07" cy="21.72" rx="0.67" ry="0.73"/><path class="a" d="M83.41,9l.66-1.06a2.17,2.17,0,0,0,1.72.73c.66,0,1-.33,1-.79,0-1.26-3.11-.8-3.11-3.18a2.1,2.1,0,0,1,2.32-2,2.91,2.91,0,0,1,2.12.8l-.66,1.05a2.26,2.26,0,0,0-1.53-.59c-.53,0-.86.26-.86.73,0,1.12,3.11.79,3.11,3.11a2.09,2.09,0,0,1-2.38,2.11A3.37,3.37,0,0,1,83.41,9Z"/><path class="a" d="M89,6.27c0-2.12,1.12-3.57,3-3.57a2.42,2.42,0,0,1,2.32,1.65l-1.19.53A1.27,1.27,0,0,0,91.88,4c-1,0-1.52,1-1.52,2.38S91,8.72,91.88,8.72a1.35,1.35,0,0,0,1.19-1l1.19.52A2.52,2.52,0,0,1,91.94,10C90.09,9.84,89,8.39,89,6.27Z"/><polygon class="a" points="99.15 9.71 99.15 6.73 96.84 6.73 96.84 9.71 95.45 9.71 95.45 2.77 96.84 2.77 96.84 5.54 99.15 5.54 99.15 2.77 100.54 2.77 100.54 9.71 99.15 9.71"/><path class="a" d="M101.93,6.27c0-2,1.06-3.57,2.91-3.57s2.91,1.52,2.91,3.57-1.12,3.57-2.91,3.57S101.93,8.32,101.93,6.27Zm4.37,0c0-1.32-.53-2.38-1.46-2.38s-1.52,1-1.52,2.38.53,2.38,1.52,2.38S106.3,7.59,106.3,6.27Z"/><path class="a" d="M109,6.27c0-2,1.06-3.57,2.91-3.57s2.91,1.52,2.91,3.57-1.12,3.57-2.91,3.57S109,8.32,109,6.27Zm4.43,0c0-1.32-.53-2.38-1.45-2.38s-1.52,1-1.52,2.38S111,8.65,112,8.65,113.44,7.59,113.44,6.27Z"/><polygon class="a" points="116.35 9.71 116.35 2.77 117.74 2.77 117.74 8.52 120.12 8.52 120.12 9.78 116.35 9.78 116.35 9.71"/><path class="a" d="M124,6.27c0-2,1-3.57,2.91-3.57s2.91,1.52,2.91,3.57-1.13,3.57-2.91,3.57S124,8.32,124,6.27Zm4.43,0c0-1.32-.53-2.38-1.46-2.38s-1.52,1-1.52,2.38S126,8.65,127,8.65,128.46,7.59,128.46,6.27Z"/><polygon class="a" points="131.44 9.71 131.44 2.77 135.4 2.77 135.4 4.02 132.82 4.02 132.82 5.61 135.34 5.61 135.34 6.8 132.82 6.8 132.82 9.71 131.44 9.71"/><path class="a" d="M139.7,9.71V2.77h2.58A2.09,2.09,0,0,1,144.47,5a2.06,2.06,0,0,1-2.19,2.19h-1.19V9.71ZM143,5a.92.92,0,0,0-.92-1h-1V6h1A.93.93,0,0,0,143,5Z"/><path class="a" d="M145.86,7.33V2.77h1.39V7.33c0,.86.39,1.32,1.19,1.32a1.15,1.15,0,0,0,1.19-1.32V2.77H151V7.33a2.58,2.58,0,0,1-5.16,0Z"/><path class="a" d="M152.6,9.71V2.77h2.91a1.69,1.69,0,0,1,1.86,1.78,1.49,1.49,0,0,1-1.13,1.59,1.67,1.67,0,0,1,1.26,1.72,1.75,1.75,0,0,1-1.85,1.92H152.6Zm3.31-4.89a.71.71,0,0,0-.73-.8H154V5.61h1.19A.71.71,0,0,0,155.91,4.82ZM156,7.66a.78.78,0,0,0-.79-.86h-1.19V8.52h1.19A.78.78,0,0,0,156,7.66Z"/><polygon class="a" points="158.95 9.71 158.95 2.77 160.34 2.77 160.34 8.52 162.72 8.52 162.72 9.78 158.95 9.78 158.95 9.71"/><polygon class="a" points="164.18 9.71 164.18 4.29 164.18 2.83 165.57 2.83 165.57 6.93 165.57 9.71 164.18 9.71"/><path class="a" d="M167.09,6.27c0-2.12,1.12-3.57,3-3.57a2.42,2.42,0,0,1,2.31,1.65l-1.19.53A1.26,1.26,0,0,0,170,4c-1,0-1.52,1-1.52,2.38s.59,2.38,1.52,2.38a1.34,1.34,0,0,0,1.19-1l1.19.52A2.52,2.52,0,0,1,170.07,10C168.28,9.84,167.09,8.39,167.09,6.27Z"/><polygon class="a" points="180.32 9.71 180.32 6.73 178 6.73 178 9.71 176.62 9.71 176.62 2.77 178 2.77 178 5.54 180.32 5.54 180.32 2.77 181.71 2.77 181.71 9.71 180.32 9.71"/><polygon class="a" points="183.43 9.71 183.43 2.77 187.4 2.77 187.4 4.02 184.82 4.02 184.82 5.61 187.33 5.61 187.33 6.8 184.82 6.8 184.82 8.52 187.4 8.52 187.4 9.78 183.43 9.78 183.43 9.71"/><path class="a" d="M193,9.71l-.34-1.26h-2.18l-.33,1.26h-1.52l2.12-6.94h1.65l2,6.94Zm-1.39-5.49-.8,3h1.59Z"/><polygon class="a" points="195.67 9.71 195.67 2.77 197.06 2.77 197.06 8.52 199.44 8.52 199.44 9.78 195.67 9.78 195.67 9.71"/><polygon class="a" points="201.36 9.71 201.36 3.96 199.84 3.96 199.84 2.7 204.33 2.7 204.33 3.96 202.75 3.96 202.75 9.71 201.36 9.71"/><polygon class="a" points="209.56 9.71 209.56 6.73 207.24 6.73 207.24 9.71 205.79 9.71 205.79 2.77 207.18 2.77 207.18 5.54 209.49 5.54 209.49 2.77 210.88 2.77 210.88 9.71 209.56 9.71"/><polygon class="d" points="83.73 21.75 84.44 21.75 84.44 16.04 83.73 16.04 83.73 21.75"/><path class="d" d="M88.54,21.75v-2.7c0-.73-.36-1-.92-1a1.61,1.61,0,0,0-1.23.64v3h-.64V17.62h.64v.6a2.09,2.09,0,0,1,1.48-.7,1.17,1.17,0,0,1,1.32,1.33v2.9h-.65"/><path class="d" d="M93.47,20.63V18.76a1.55,1.55,0,0,0-1.24-.67c-.84,0-1.33.68-1.33,1.6s.49,1.59,1.33,1.59A1.54,1.54,0,0,0,93.47,20.63Zm0,1.12v-.61a1.75,1.75,0,0,1-1.4.72c-1.08,0-1.84-.83-1.84-2.17s.75-2.17,1.84-2.17a1.74,1.74,0,0,1,1.4.72V16h.64v5.71Z"/><path class="d" d="M95.39,21.75H96V17.62h-.65Zm-.11-5.15a.44.44,0,1,1,.87,0,.44.44,0,0,1-.87,0Z"/><path class="d" d="M99.91,20.88V20.1a1.4,1.4,0,0,0-1.14-.51.91.91,0,1,0,0,1.8A1.4,1.4,0,0,0,99.91,20.88Zm0,.87v-.47a1.8,1.8,0,0,1-1.37.58,1.37,1.37,0,0,1-1.45-1.37,1.35,1.35,0,0,1,1.45-1.36,1.76,1.76,0,0,1,1.37.56V19c0-.56-.45-.88-1-.88a1.63,1.63,0,0,0-1.27.58l-.3-.45A2.19,2.19,0,0,1,99,17.52c.87,0,1.6.39,1.6,1.39v2.84Z"/><path class="d" d="M107.42,17.76a1.06,1.06,0,0,0-1.14-1.08h-1.5v2.18h1.5A1.07,1.07,0,0,0,107.42,17.76Zm0,4-1.45-2.26h-1.14v2.26h-.71V16h2.29a1.66,1.66,0,0,1,1.79,1.72,1.58,1.58,0,0,1-1.48,1.67l1.54,2.32Z"/><path class="d" d="M110.78,18.05a1.37,1.37,0,0,0-1.35,1.38h2.71A1.34,1.34,0,0,0,110.78,18.05Zm-2,1.63a2.06,2.06,0,0,1,2-2.16,2,2,0,0,1,2,2.21v.17h-3.35a1.46,1.46,0,0,0,1.49,1.43,1.77,1.77,0,0,0,1.27-.53l.31.42a2.25,2.25,0,0,1-1.64.64,2.06,2.06,0,0,1-2.11-2.18Z"/><path class="d" d="M113.45,21.21l.34-.47a1.84,1.84,0,0,0,1.36.59c.63,0,1-.3,1-.71,0-1-2.56-.38-2.56-1.91,0-.65.56-1.19,1.54-1.19a2.08,2.08,0,0,1,1.54.6l-.3.44A1.61,1.61,0,0,0,115.1,18c-.56,0-.91.28-.91.65,0,.91,2.56.31,2.56,1.92,0,.69-.56,1.25-1.63,1.25a2.21,2.21,0,0,1-1.67-.65"/><path class="d" d="M119.58,18.05a1.37,1.37,0,0,0-1.35,1.38H121A1.34,1.34,0,0,0,119.58,18.05Zm-2,1.63a2.06,2.06,0,0,1,2-2.16,2,2,0,0,1,2,2.21v.17h-3.35a1.46,1.46,0,0,0,1.49,1.43A1.81,1.81,0,0,0,121,20.8l.31.42a2.28,2.28,0,0,1-1.65.64,2.06,2.06,0,0,1-2.11-2.18Z"/><path class="d" d="M125.2,20.88V20.1a1.39,1.39,0,0,0-1.14-.51.91.91,0,1,0,0,1.8A1.39,1.39,0,0,0,125.2,20.88Zm0,.87v-.47a1.77,1.77,0,0,1-1.37.58,1.38,1.38,0,0,1-1.45-1.37,1.35,1.35,0,0,1,1.45-1.36,1.73,1.73,0,0,1,1.37.56V19c0-.56-.44-.88-1-.88a1.63,1.63,0,0,0-1.27.58l-.3-.45a2.17,2.17,0,0,1,1.65-.68c.88,0,1.6.39,1.6,1.39v2.84Z"/><path class="d" d="M127.13,21.75V17.62h.64v.67a1.74,1.74,0,0,1,1.38-.76v.66l-.26,0a1.5,1.5,0,0,0-1.12.66v2.92h-.64"/><path class="d" d="M129.71,19.68a2,2,0,0,1,2.07-2.16,1.73,1.73,0,0,1,1.51.72l-.43.39a1.21,1.21,0,0,0-1.05-.54,1.44,1.44,0,0,0-1.43,1.59,1.45,1.45,0,0,0,1.43,1.6,1.23,1.23,0,0,0,1.05-.54l.43.4a1.76,1.76,0,0,1-1.51.72,2.05,2.05,0,0,1-2.07-2.18"/><path class="d" d="M137,21.75V19c0-.73-.38-.94-.93-.94a1.64,1.64,0,0,0-1.23.64v3h-.64V16h.64v2.18a2.07,2.07,0,0,1,1.48-.7,1.16,1.16,0,0,1,1.32,1.31v2.92H137"/><path class="d" d="M140.92,18.9A2.86,2.86,0,0,1,143.86,16,2.57,2.57,0,0,1,146,17.08l-.6.33a1.94,1.94,0,0,0-1.57-.83,2.19,2.19,0,0,0-2.2,2.32,2.19,2.19,0,0,0,2.2,2.32,1.91,1.91,0,0,0,1.57-.83l.6.34a2.58,2.58,0,0,1-2.17,1.13,2.86,2.86,0,0,1-2.94-3"/><path class="d" d="M148.7,18.05a1.38,1.38,0,0,0-1.35,1.38h2.72A1.34,1.34,0,0,0,148.7,18.05Zm-2,1.63a2.06,2.06,0,0,1,2-2.16,2,2,0,0,1,2,2.21v.17h-3.35a1.46,1.46,0,0,0,1.49,1.43,1.81,1.81,0,0,0,1.28-.53l.31.42a2.26,2.26,0,0,1-1.65.64,2.06,2.06,0,0,1-2.11-2.18Z"/><path class="d" d="M154.53,21.75v-2.7c0-.73-.37-1-.93-1a1.61,1.61,0,0,0-1.22.64v3h-.64V17.62h.64v.6a2.06,2.06,0,0,1,1.47-.7,1.17,1.17,0,0,1,1.32,1.33v2.9h-.64"/><path class="d" d="M156.58,20.89V18.18h-.68v-.56h.68V16.49h.65v1.13h.83v.56h-.83v2.57c0,.31.13.53.41.53a.58.58,0,0,0,.44-.17l.19.48a1,1,0,0,1-.77.27.85.85,0,0,1-.92-1"/><path class="d" d="M160.76,18.05a1.37,1.37,0,0,0-1.35,1.38h2.71A1.33,1.33,0,0,0,160.76,18.05Zm-2,1.63a2.06,2.06,0,0,1,2-2.16,2,2,0,0,1,2,2.21v.17h-3.35a1.46,1.46,0,0,0,1.49,1.43,1.81,1.81,0,0,0,1.28-.53l.3.42a2.24,2.24,0,0,1-1.64.64,2.06,2.06,0,0,1-2.11-2.18Z"/><path class="d" d="M163.79,21.75V17.62h.65v.67a1.74,1.74,0,0,1,1.37-.76v.66l-.25,0a1.47,1.47,0,0,0-1.12.66v2.92h-.65"/><polygon class="e" points="79.16 26.1 78.24 26.1 78.24 14.75 78.24 0 79.16 0 79.16 21.54 79.16 26.1"/></svg>