<?xml version="1.0" encoding="UTF-8"?>
<svg width="20px" height="20px" viewBox="0 0 20 20" version="1.1" xmlns="http://www.w3.org/2000/svg" xmlns:xlink="http://www.w3.org/1999/xlink">
    <!-- Generator: sketchtool 55.2 (78181) - https://sketchapp.com -->
    <title>93FA50E6-0AA8-48E2-B7DB-AEF2E18D6305@1x</title>
    <desc>Created with sketchtool.</desc>
    <g id="Page-1" stroke="none" stroke-width="1" fill="none" fill-rule="evenodd">
        <g id="DATA-PORTAL.4" transform="translate(-1262.000000, -444.000000)" fill="#A11C2F" fill-rule="nonzero">
            <g id="Main-content" transform="translate(0.000000, 116.000000)">
                <g id="BG">
                    <g id="Person-1" transform="translate(425.220000, 94.000000)">
                        <g id="Group-2" transform="translate(0.780000, 202.000000)">
                            <path d="M839.120485,32.5291065 C837.700104,32.5293723 836.532624,33.7003821 836.532478,35.120958 C836.532641,39.2345404 836.529167,43.3398976 836.529167,47.4529603 C836.524317,47.9289479 836.904176,48.3196898 837.380083,48.3267077 C837.86588,48.3338887 838.261925,47.938853 838.256231,47.4529603 L838.256231,36.210614 C838.350874,36.174544 838.458888,36.1405124 838.562347,36.1507339 C838.785254,36.1727536 839.019358,36.2414777 839.183846,36.4062802 C844.134077,41.3653023 849.094849,46.3129029 854.047364,51.2693044 C854.386867,51.6169105 854.946797,51.6153682 855.28529,51.2666931 C855.616845,50.9251713 855.608964,50.3797848 855.26848,50.0471561 C850.31249,45.0945926 845.358897,40.1396095 840.404961,35.1849923 C840.239445,35.0197613 840.174236,34.7836556 840.15281,34.5600426 C840.143018,34.4576851 840.176312,34.3509269 840.211874,34.2572667 C843.959919,34.257172 847.705481,34.2564234 851.453556,34.2564234 C851.929481,34.262005 852.320174,33.8814148 852.32719,33.4054461 C852.333718,32.9195724 851.939386,32.5234713 851.453556,32.5291065 L839.120485,32.5291065 Z" id="Black-arrow" transform="translate(846.029075, 42.029106) scale(-1, 1) translate(-846.029075, -42.029106) "></path>
                        </g>
                    </g>
                </g>
            </g>
        </g>
    </g>
</svg>