<?xml version="1.0" encoding="UTF-8"?>
<svg width="15px" height="14px" viewBox="0 0 15 14" version="1.1" xmlns="http://www.w3.org/2000/svg" xmlns:xlink="http://www.w3.org/1999/xlink">
    <!-- Generator: sketchtool 55.2 (78181) - https://sketchapp.com -->
    <title>7DDBE73A-A685-4079-B79C-2AF18655A69F</title>
    <desc>Created with sketchtool.</desc>
    <g id="Page-1" stroke="none" stroke-width="1" fill="none" fill-rule="evenodd">
        <g id="HOME-" transform="translate(-1304.000000, -1477.000000)" fill="#23272B">
            <g id="Bottom-filler" transform="translate(0.000000, 1432.000000)">
                <g id="Group-3" transform="translate(1161.000000, 38.000000)">
                    <g id="Socials">
                        <g id="LinkedIN" transform="translate(137.529412, 0.823529)">
                            <g id="In" transform="translate(5.000000, 6.000000)">
                                <polygon id="Path" points="4.17670012 4.56309956 1.14779068 4.56309956 1.14779068 13.6637151 4.17670012 13.6637151"></polygon>
                                <path d="M4.37619174,1.74791203 C4.35653292,0.855602435 3.71843799,0.175966103 2.68226715,0.175966103 C1.64609631,0.175966103 0.96868374,0.855602435 0.96868374,1.74791203 C0.96868374,2.6217388 1.62607456,3.32094518 2.64294952,3.32094518 L2.66230589,3.32094518 C3.71843799,3.32094518 4.37619174,2.6217388 4.37619174,1.74791203 Z" id="Path"></path>
                                <path d="M15.1001063,8.4457003 C15.1001063,5.65038481 13.6058548,4.34939948 11.6126928,4.34939948 C10.0045411,4.34939948 9.28454451,5.23270927 8.88253684,5.85236703 L8.88253684,4.56334117 L5.85326447,4.56334117 C5.89318698,5.41729589 5.85326447,13.6639568 5.85326447,13.6639568 L8.88253684,13.6639568 L8.88253684,8.5814222 C8.88253684,8.30943478 8.90219566,8.03811178 8.98228265,7.84337773 C9.20119113,7.30000691 9.69961773,6.73742846 10.5364179,6.73742846 C11.632896,6.73742846 12.0711968,7.57193393 12.0711968,8.79488068 L12.0711968,13.6637151 L15.0999853,13.6637151 L15.1001063,8.4457003 Z" id="Path"></path>
                            </g>
                        </g>
                    </g>
                </g>
            </g>
        </g>
    </g>
</svg>