<?xml version="1.0" encoding="UTF-8"?>
<svg width="23px" height="19px" viewBox="0 0 23 19" version="1.1" xmlns="http://www.w3.org/2000/svg" xmlns:xlink="http://www.w3.org/1999/xlink">
    <!-- Generator: sketchtool 55.2 (78181) - https://sketchapp.com -->
    <title>5E7F120A-30B3-49A3-AA06-74A2A6325A5D@1.5x</title>
    <desc>Created with sketchtool.</desc>
    <g id="Page-1" stroke="none" stroke-width="1" fill="none" fill-rule="evenodd">
        <g id="mHome_carousel3" transform="translate(-20.000000, -68.000000)" fill="#344052" fill-rule="nonzero" stroke="#FFFFFF">
            <g id="header-Design">
                <g id="Main-header" transform="translate(0.000000, 56.000000)">
                    <g id="Group-2" transform="translate(21.000000, 11.000000)">
                        <path d="M14.2936401,8.95128552 C15.1745602,8.95128552 15.8565629,9.63328823 15.8849797,10.5142084 C15.8849797,11.3667118 15.1745602,12.0771313 14.3220568,12.0771313 L1.56292287,12.0771313 C0.710419486,12.0771313 0,11.3667118 0,10.5142084 C0,9.66170501 0.710419486,8.95128552 1.56292287,8.95128552 L14.2936401,8.95128552 Z M8.78078484,2 C9.63328823,2 10.3437077,2.71041949 10.3437077,3.56292287 C10.3437077,4.41542625 9.63328823,5.12584574 8.78078484,5.12584574 L1.56292287,5.12584574 C0.710419486,5.12584574 9.09494702e-13,4.41542625 9.09494702e-13,3.56292287 C9.09494702e-13,2.71041949 0.710419486,2 1.56292287,2 L8.78078484,2 Z M19.2665765,15.8741543 C20.1474966,15.8741543 20.8294993,16.5845737 20.8579161,17.4370771 C20.8579161,18.2895805 20.1474966,19 19.2949932,19 L1.56292287,19 C0.710419486,19 9.09494702e-13,18.2895805 9.09494702e-13,17.4370771 C9.09494702e-13,16.5845737 0.710419486,15.8741543 1.56292287,15.8741543 L19.2665765,15.8741543 Z" id="ic_Menu" transform="translate(10.428958, 10.500000) scale(1, -1) translate(-10.428958, -10.500000) "></path>
                    </g>
                </g>
            </g>
        </g>
    </g>
</svg>