<svg xmlns="http://www.w3.org/2000/svg" xmlns:xlink="http://www.w3.org/1999/xlink" width="30px" height="30px" viewBox="0 0 30 30" version="1.1">
    <!-- Generator: sketchtool 55.2 (78181) - https://sketchapp.com -->
    <title>274762AD-92AB-4701-888C-94A81A026855@1x</title>
    <desc>Created with sketchtool.</desc>
    <g id="Page-1" stroke="none" stroke-width="1" fill="none" fill-rule="evenodd" transform="rotate(225)" transform-origin="15px 12px">
        <g id="M_DATA-PORTAL.4" transform="translate(-282.000000, -698.000000)" fill="#344052" fill-rule="nonzero">
            <g id="1" transform="translate(18.000000, 214.000000)">
                <g id="Group-2" transform="translate(0.000000, 448.000000)">
                    <path d="M267.000502,36 C265.355835,36.0003078 264.004004,37.3562138 264.003834,39.0010912 C264.004023,43.7641867 264,48.5177582 264,53.2802517 C263.994385,53.8313953 264.434226,54.2838333 264.985281,54.2919592 C265.547788,54.3002741 266.006371,53.8428644 265.999778,53.2802517 L265.999778,40.2627981 C266.109365,40.2210328 266.234435,40.1816279 266.354231,40.1934633 C266.612337,40.2189598 266.883407,40.2985351 267.073868,40.489359 C272.80577,46.2313847 278.549877,51.9601853 284.284424,57.6991765 C284.677536,58.1016678 285.325882,58.0998819 285.717825,57.6961529 C286.101734,57.3007066 286.092608,56.6692065 285.69836,56.2840574 C279.95979,50.5495102 274.223996,44.8121614 268.487805,39.0752362 C268.296153,38.883916 268.220647,38.6105305 268.195838,38.3516102 C268.1845,38.233091 268.223051,38.1094763 268.264229,38.0010276 C272.604111,38.000918 276.941119,38.0000512 281.281038,38.0000512 C281.832114,38.0065141 282.2845,37.5658307 282.292624,37.014709 C282.300183,36.4521184 281.843583,35.993475 281.281038,36 L267.000502,36 Z" id="Black-arrow" transform="translate(275.000000, 47.000000) scale(-1, 1) translate(-275.000000, -47.000000) "/>
                </g>
            </g>
        </g>
    </g>
</svg>