<?xml version="1.0" encoding="UTF-8"?>
<svg width="15px" height="15px" viewBox="0 0 15 15" version="1.1" xmlns="http://www.w3.org/2000/svg" xmlns:xlink="http://www.w3.org/1999/xlink">
    <!-- Generator: sketchtool 55.2 (78181) - https://sketchapp.com -->
    <title>9C56BC4D-CAFF-4996-A22E-43269FA4FE09@1x</title>
    <desc>Created with sketchtool.</desc>
    <g id="Page-1" stroke="none" stroke-width="1" fill="none" fill-rule="evenodd">
        <g id="RESOURCES.2" transform="translate(-658.000000, -430.000000)" fill="#0D72E8" fill-rule="nonzero">
            <g id="Main-content" transform="translate(0.000000, 116.000000)">
                <g id="People-chunk" transform="translate(324.220000, 0.000000)">
                    <g id="Data-Topics" transform="translate(0.780000, 0.000000)">
                        <g id="Tile-1" transform="translate(101.000000, 96.000000)">
                            <g id="visit-link" transform="translate(17.000000, 204.000000)">
                                <path d="M217.045777,14 C215.924424,14.0002098 215.00273,14.9246912 215.002614,16.0461986 C215.002743,19.2937636 215,22.5348351 215,25.7819898 C214.996172,26.1577695 215.29606,26.46625 215.671776,26.4717904 C216.0553,26.4774596 216.367967,26.1655894 216.363472,25.7819898 L216.363472,16.9064533 C216.43819,16.8779769 216.523464,16.8511099 216.605142,16.8591796 C216.781122,16.8765635 216.96594,16.9308194 217.095799,17.0609266 C221.003876,20.9759441 224.920276,24.8819446 228.830156,28.7948931 C229.098185,29.0693189 229.540235,29.0681013 229.807466,28.7928315 C230.06922,28.523209 230.062998,28.0926408 229.794195,27.8300391 C225.881571,23.9201206 221.97084,20.0082919 218.059838,16.0967519 C217.929167,15.9663064 217.877686,15.7799072 217.860771,15.6033706 C217.853041,15.522562 217.879325,15.4382793 217.907401,15.364337 C220.866383,15.3642623 223.823406,15.3636712 226.782413,15.3636712 C227.158143,15.3680778 227.466585,15.0676118 227.472124,14.691847 C227.477278,14.3082625 227.165962,13.9955511 226.782413,14 L217.045777,14 Z" id="open-in-new-arrow" transform="translate(222.499928, 21.500000) scale(-1, 1) translate(-222.499928, -21.500000) "></path>
                            </g>
                        </g>
                    </g>
                </g>
            </g>
        </g>
    </g>
</svg>