<svg xmlns="http://www.w3.org/2000/svg" viewBox="0 0 522.1 40.33"><defs><style>.a{fill:#fff;}</style></defs><title>sanchar_logo</title><polygon class="a" points="216.04 39.66 215.43 39.66 215.43 22.42 215.43 0 216.04 0 216.04 32.73 216.04 39.66"/><path class="a" d="M1.06,28.57V27.46A1,1,0,0,1,2.22,26.3H6.94a1,1,0,0,1,1.17,1.16v.45a3.9,3.9,0,0,0,.83,2.88,4.53,4.53,0,0,0,3.06.78h2.61a4.33,4.33,0,0,0,3-.83,4.28,4.28,0,0,0,.86-3.11V27a2.79,2.79,0,0,0-1.3-2.47,6.93,6.93,0,0,0-3.25-1,35.72,35.72,0,0,1-4.19-.64,27.91,27.91,0,0,1-4.2-1.22A6.59,6.59,0,0,1,2.3,18.66,10.89,10.89,0,0,1,1,13V11.09A9,9,0,0,1,3.44,4.37,9.3,9.3,0,0,1,10.22,2h5.55A9.36,9.36,0,0,1,22.6,4.37,9,9,0,0,1,25,11.09v1.05a1,1,0,0,1-1.16,1.17H19.16A1,1,0,0,1,18,12.14v-.33a4,4,0,0,0-.83-2.94,4.51,4.51,0,0,0-3.05-.78H11.94A4.2,4.2,0,0,0,8.86,9q-.81.86-.81,3.36v1q0,2.61,4.56,3A28.19,28.19,0,0,1,21,18.25a7,7,0,0,1,3.25,3,10.35,10.35,0,0,1,1.3,5.47v1.88a9,9,0,0,1-2.44,6.72,9.29,9.29,0,0,1-6.77,2.39H10.27A9.29,9.29,0,0,1,3.5,35.29,9,9,0,0,1,1.06,28.57ZM34,37.68H28.68c-.67,0-.89-.39-.67-1.17L36.79,3.15A1.58,1.58,0,0,1,38.45,2h7.39A1.49,1.49,0,0,1,47.5,3.15l8.78,33.36c.22.78,0,1.17-.67,1.17H50.28a1.09,1.09,0,0,1-.83-.25,1.94,1.94,0,0,1-.34-.92l-1.55-6.1H36.73l-1.55,6.1a1.73,1.73,0,0,1-.37.92A1.11,1.11,0,0,1,34,37.68Zm8.05-29-4,16h8.22l-4-16Zm23.35,29H60.8a1,1,0,0,1-1.17-1.17V3.15A1,1,0,0,1,60.8,2H65a1.57,1.57,0,0,1,1.56.78l11.22,21H78V3.15A1,1,0,0,1,79.12,2h4.61A1,1,0,0,1,84.9,3.15V36.51a1,1,0,0,1-1.17,1.17h-4a1.86,1.86,0,0,1-1.78-1.11L66.8,15.92h-.23V36.51A1,1,0,0,1,65.41,37.68Zm39.78,0h-6a9.33,9.33,0,0,1-6.78-2.33Q90,33,90,28.63V11q0-4.38,2.38-6.72A9.33,9.33,0,0,1,99.14,2h6a9.26,9.26,0,0,1,6.75,2.36A9,9,0,0,1,114.35,11v2.61a1.07,1.07,0,0,1-1.22,1.22h-4.66c-.78,0-1.17-.4-1.17-1.22V11.36a3.48,3.48,0,0,0-.75-2.52A3.48,3.48,0,0,0,104,8.09h-3.78a3.39,3.39,0,0,0-2.47.75A3.48,3.48,0,0,0,97,11.36V28.3a3.48,3.48,0,0,0,.75,2.52,3.39,3.39,0,0,0,2.47.75H104a3.48,3.48,0,0,0,2.52-.75,3.48,3.48,0,0,0,.75-2.52V26c0-.81.39-1.22,1.17-1.22h4.66A1.08,1.08,0,0,1,114.35,26v2.61a8.92,8.92,0,0,1-2.41,6.69A9.26,9.26,0,0,1,105.19,37.68Zm19.52,0H120a1,1,0,0,1-1.17-1.17V3.15A1,1,0,0,1,120,2h4.72a1,1,0,0,1,1.16,1.17v13c0,.41.23.62.67.62h9.38a.55.55,0,0,0,.62-.62v-13A1,1,0,0,1,137.7,2h4.72a1,1,0,0,1,1.17,1.17V36.51a1,1,0,0,1-1.17,1.17H137.7a1,1,0,0,1-1.16-1.17v-13a.55.55,0,0,0-.62-.61h-9.38c-.44,0-.67.21-.67.61v13A1,1,0,0,1,124.71,37.68Zm28.23,0h-5.33c-.67,0-.89-.39-.67-1.17l8.78-33.36A1.59,1.59,0,0,1,157.38,2h7.39a1.49,1.49,0,0,1,1.66,1.17l8.78,33.36c.22.78,0,1.17-.67,1.17h-5.33a1.11,1.11,0,0,1-.83-.25,1.94,1.94,0,0,1-.34-.92l-1.55-6.1H155.66l-1.55,6.1a1.82,1.82,0,0,1-.36.92A1.15,1.15,0,0,1,152.94,37.68ZM161,8.7l-4,16h8.22l-4-16Zm23.46,29h-4.72a1,1,0,0,1-1.17-1.17V3.15A1,1,0,0,1,179.73,2H193a9.29,9.29,0,0,1,6.77,2.39,9,9,0,0,1,2.44,6.72v4.33q0,6.27-4.94,8.32V24l5.94,12.38c.34.88,0,1.33-.94,1.33h-4.5a3.57,3.57,0,0,1-1.44-.22,1.64,1.64,0,0,1-.72-1l-5.56-12h-3.72c-.44,0-.66.2-.66.61V36.51A1,1,0,0,1,184.45,37.68Zm1.78-18.82h5.44a3.84,3.84,0,0,0,2.61-.75,3.12,3.12,0,0,0,.83-2.42V11.36a3.28,3.28,0,0,0-.83-2.49,3.74,3.74,0,0,0-2.61-.78h-5.44a.54.54,0,0,0-.61.61v9.55A.54.54,0,0,0,186.23,18.86Z" transform="translate(-1)"/><path class="a" d="M235.61,11.12a3,3,0,0,1-1.14,2.47,5,5,0,0,1-3.14.89,7.39,7.39,0,0,1-3.27-.62V12a9.6,9.6,0,0,0,1.71.6,7.57,7.57,0,0,0,1.69.21,2.73,2.73,0,0,0,1.7-.43,1.42,1.42,0,0,0,.54-1.17,1.47,1.47,0,0,0-.5-1.12A7.34,7.34,0,0,0,231.13,9a5.51,5.51,0,0,1-2.27-1.5,3.15,3.15,0,0,1-.66-2,2.83,2.83,0,0,1,1-2.33,4.39,4.39,0,0,1,2.82-.84,8.22,8.22,0,0,1,3.38.74l-.62,1.57A7.37,7.37,0,0,0,232,4a2.18,2.18,0,0,0-1.42.41,1.34,1.34,0,0,0-.48,1.07,1.52,1.52,0,0,0,.19.79,2,2,0,0,0,.64.62,11.65,11.65,0,0,0,1.6.77,8.87,8.87,0,0,1,1.9,1,3,3,0,0,1,.89,1.06A3.16,3.16,0,0,1,235.61,11.12Zm5.69,3.36a3.89,3.89,0,0,1-3.08-1.18,4.9,4.9,0,0,1-1.06-3.39,5,5,0,0,1,1.1-3.46,4.1,4.1,0,0,1,3.19-1.21,6,6,0,0,1,2.54.52l-.57,1.53a5.6,5.6,0,0,0-2-.47c-1.54,0-2.31,1-2.31,3.07a3.75,3.75,0,0,0,.57,2.26,2,2,0,0,0,1.69.75,4.84,4.84,0,0,0,2.4-.63v1.66a3.57,3.57,0,0,1-1.08.42A6.35,6.35,0,0,1,241.3,14.48Zm6.48-.16h-1.9V5.4h1.9ZM245.77,3a1,1,0,0,1,.28-.78,1.28,1.28,0,0,1,1.57,0,1,1,0,0,1,.28.78,1,1,0,0,1-.28.77,1.28,1.28,0,0,1-1.57,0A1,1,0,0,1,245.77,3Zm8.62,11.45a4.32,4.32,0,0,1-3.26-1.21A4.63,4.63,0,0,1,250,9.92a5,5,0,0,1,1.09-3.43,3.73,3.73,0,0,1,3-1.25,3.65,3.65,0,0,1,2.79,1.07,4.06,4.06,0,0,1,1,3v1h-6a2.93,2.93,0,0,0,.7,2,2.43,2.43,0,0,0,1.87.7,6.91,6.91,0,0,0,1.47-.15,7.83,7.83,0,0,0,1.46-.49v1.54a6.24,6.24,0,0,1-1.4.47A8.71,8.71,0,0,1,254.39,14.48ZM254,6.67a1.88,1.88,0,0,0-1.45.58,2.72,2.72,0,0,0-.65,1.67H256a2.45,2.45,0,0,0-.53-1.68A1.82,1.82,0,0,0,254,6.67Zm13.83,7.65H266V8.84a2.47,2.47,0,0,0-.41-1.55,1.64,1.64,0,0,0-1.32-.5,2.08,2.08,0,0,0-1.76.71,3.9,3.9,0,0,0-.56,2.38v4.44H260V5.4h1.49l.27,1.17h.09a2.6,2.6,0,0,1,1.15-1,3.82,3.82,0,0,1,1.64-.34q3.23,0,3.22,3.26Zm6.24.16A3.9,3.9,0,0,1,271,13.3,4.9,4.9,0,0,1,270,9.91a4.93,4.93,0,0,1,1.11-3.46,4.06,4.06,0,0,1,3.18-1.21,6,6,0,0,1,2.54.52l-.57,1.53a5.55,5.55,0,0,0-2-.47c-1.54,0-2.31,1-2.31,3.07a3.75,3.75,0,0,0,.57,2.26,2,2,0,0,0,1.7.75,4.83,4.83,0,0,0,2.39-.63v1.66a3.57,3.57,0,0,1-1.08.42A6.29,6.29,0,0,1,274.11,14.48Zm8.48,0a4.33,4.33,0,0,1-3.26-1.21,4.63,4.63,0,0,1-1.17-3.35,5,5,0,0,1,1.09-3.43,3.73,3.73,0,0,1,3-1.25A3.68,3.68,0,0,1,285,6.31a4.1,4.1,0,0,1,1,3v1h-5.95a2.93,2.93,0,0,0,.7,2,2.46,2.46,0,0,0,1.87.7,6.78,6.78,0,0,0,1.47-.15,7.91,7.91,0,0,0,1.47-.49v1.54a6.31,6.31,0,0,1-1.41.47A8.71,8.71,0,0,1,282.59,14.48Zm-.35-7.81a1.9,1.9,0,0,0-1.45.58,2.72,2.72,0,0,0-.65,1.67h4.06a2.45,2.45,0,0,0-.54-1.68A1.8,1.8,0,0,0,282.24,6.67ZM300,14.32l-1.18-3.27h-4.51l-1.15,3.27h-2l4.42-11.84h2.1l4.41,11.84Zm-1.68-4.94-1.11-3.21c-.08-.21-.19-.55-.34-1s-.24-.81-.29-1A19.37,19.37,0,0,1,296,6.31l-1.06,3.07Zm12.94,4.94h-1.9V8.84A2.41,2.41,0,0,0,309,7.29a1.63,1.63,0,0,0-1.32-.5,2.08,2.08,0,0,0-1.76.71,3.91,3.91,0,0,0-.55,2.38v4.44h-1.9V5.4h1.48l.27,1.17h.1a2.63,2.63,0,0,1,1.14-1,3.9,3.9,0,0,1,1.65-.34q3.21,0,3.21,3.26Zm5.65.16a3.09,3.09,0,0,1-2.6-1.21,5.38,5.38,0,0,1-.94-3.39,5.46,5.46,0,0,1,1-3.42A3.13,3.13,0,0,1,317,5.24a3.05,3.05,0,0,1,2.67,1.3h.1A11.77,11.77,0,0,1,319.61,5V1.77h1.91V14.32H320l-.33-1.17h-.09A3,3,0,0,1,316.94,14.48Zm.51-1.53a2,2,0,0,0,1.7-.66,3.42,3.42,0,0,0,.55-2.13V9.89a4,4,0,0,0-.55-2.39,2,2,0,0,0-1.71-.71,1.76,1.76,0,0,0-1.55.81,4.15,4.15,0,0,0-.54,2.31,4,4,0,0,0,.53,2.26A1.76,1.76,0,0,0,317.45,13Zm21.11,1.37h-2.37l-5.8-9.4h-.06l0,.53c.07,1,.11,1.91.11,2.74v6.13h-1.75V2.53h2.34l5.79,9.35h0q0-.2-.06-1.35c0-.78,0-1.39,0-1.82V2.53h1.77Zm6.81.16a4.33,4.33,0,0,1-3.26-1.21,4.63,4.63,0,0,1-1.17-3.35A5,5,0,0,1,342,6.49a3.74,3.74,0,0,1,3-1.25,3.68,3.68,0,0,1,2.8,1.07,4.1,4.1,0,0,1,1,3v1h-5.95a2.89,2.89,0,0,0,.71,2,2.42,2.42,0,0,0,1.86.7,6.78,6.78,0,0,0,1.47-.15,7.67,7.67,0,0,0,1.47-.49v1.54a6.15,6.15,0,0,1-1.41.47A8.71,8.71,0,0,1,345.37,14.48ZM345,6.67a1.86,1.86,0,0,0-1.44.58,2.66,2.66,0,0,0-.65,1.67H347a2.45,2.45,0,0,0-.54-1.68A1.8,1.8,0,0,0,345,6.67Zm13.3,7.65-1.16-4.16c-.14-.44-.39-1.47-.75-3.08h-.08c-.31,1.46-.56,2.49-.74,3.09l-1.19,4.15h-2.1L349.8,5.4h1.94l1.14,4.4c.26,1.08.44,2,.55,2.79h.05q.07-.6.24-1.35c.11-.51.21-.89.29-1.15l1.35-4.69h2.09l1.31,4.69c.08.27.18.67.3,1.21a8.24,8.24,0,0,1,.22,1.27h.06a23.59,23.59,0,0,1,.57-2.77l1.15-4.4H363l-2.52,8.92Zm12.18-2.54a2.36,2.36,0,0,1-.95,2,4.63,4.63,0,0,1-2.73.69,6.47,6.47,0,0,1-2.87-.54V12.3a7,7,0,0,0,2.93.73c1.17,0,1.75-.35,1.75-1.06a.83.83,0,0,0-.19-.56,2.25,2.25,0,0,0-.64-.47,12.35,12.35,0,0,0-1.23-.55,5.69,5.69,0,0,1-2.09-1.19,2.23,2.23,0,0,1-.54-1.55,2,2,0,0,1,.92-1.78,4.4,4.4,0,0,1,2.51-.63,7.18,7.18,0,0,1,3,.63l-.61,1.43a6.57,6.57,0,0,0-2.43-.6c-1,0-1.5.29-1.5.86a.86.86,0,0,0,.39.71,8.81,8.81,0,0,0,1.71.8,7.92,7.92,0,0,1,1.6.78,2.41,2.41,0,0,1,.75.82A2.39,2.39,0,0,1,370.5,11.78Zm1.77,1.53a1.25,1.25,0,0,1,.3-.9,1.43,1.43,0,0,1,1.79,0,1.28,1.28,0,0,1,.3.89,1.26,1.26,0,0,1-.31.91,1.35,1.35,0,0,1-1.78,0A1.34,1.34,0,0,1,372.27,13.31Zm0-6.89a1.06,1.06,0,0,1,1.19-1.22,1.14,1.14,0,0,1,.9.33,1.24,1.24,0,0,1,.3.89,1.27,1.27,0,0,1-.31.91,1.15,1.15,0,0,1-.89.34,1.17,1.17,0,0,1-.89-.34A1.3,1.3,0,0,1,372.27,6.42ZM233.83,26a3.21,3.21,0,0,0-2.62,1.18,5.07,5.07,0,0,0-1,3.25,5.08,5.08,0,0,0,.92,3.29,3.23,3.23,0,0,0,2.65,1.11,6.93,6.93,0,0,0,1.45-.15c.47-.1,1-.23,1.46-.38V36a8.81,8.81,0,0,1-3.15.53,5,5,0,0,1-4-1.57,6.56,6.56,0,0,1-1.39-4.49,7.24,7.24,0,0,1,.67-3.22,4.83,4.83,0,0,1,1.95-2.12,5.9,5.9,0,0,1,3-.73,7.41,7.41,0,0,1,3.34.76l-.7,1.6a11.77,11.77,0,0,0-1.26-.49A4.61,4.61,0,0,0,233.83,26ZM247,31.88a4.85,4.85,0,0,1-1.12,3.41,4,4,0,0,1-3.12,1.23,4.27,4.27,0,0,1-2.22-.57,3.62,3.62,0,0,1-1.47-1.62,5.42,5.42,0,0,1-.52-2.45,4.84,4.84,0,0,1,1.11-3.39,4.06,4.06,0,0,1,3.14-1.22,3.93,3.93,0,0,1,3.07,1.25A4.78,4.78,0,0,1,247,31.88Zm-6.5,0c0,2.06.77,3.09,2.29,3.09s2.26-1,2.26-3.09-.76-3.06-2.28-3.06a1.94,1.94,0,0,0-1.73.79A4,4,0,0,0,240.5,31.88Zm16.2,4.48h-1.9V30.85a2.5,2.5,0,0,0-.39-1.53,1.44,1.44,0,0,0-1.21-.5,1.86,1.86,0,0,0-1.61.71,4.22,4.22,0,0,0-.51,2.38v4.45h-1.9V27.43h1.49l.26,1.17h.1a2.51,2.51,0,0,1,1.08-1,3.49,3.49,0,0,1,1.55-.35,2.73,2.73,0,0,1,2.73,1.4h.13a2.7,2.7,0,0,1,1.11-1,3.52,3.52,0,0,1,1.65-.37,3,3,0,0,1,2.33.81,3.61,3.61,0,0,1,.73,2.46v5.82h-1.9V30.85a2.5,2.5,0,0,0-.39-1.53,1.46,1.46,0,0,0-1.22-.5,1.87,1.87,0,0,0-1.61.69,3.5,3.5,0,0,0-.52,2.12Zm15.81,0H270.6V30.85a2.57,2.57,0,0,0-.38-1.53,1.46,1.46,0,0,0-1.21-.5,1.88,1.88,0,0,0-1.62.71,4.22,4.22,0,0,0-.51,2.38v4.45H265V27.43h1.48l.27,1.17h.09a2.51,2.51,0,0,1,1.08-1,3.5,3.5,0,0,1,1.56-.35,2.71,2.71,0,0,1,2.72,1.4h.13a2.79,2.79,0,0,1,1.12-1,3.48,3.48,0,0,1,1.64-.37,3,3,0,0,1,2.33.81,3.56,3.56,0,0,1,.73,2.46v5.82h-1.89V30.85a2.43,2.43,0,0,0-.4-1.53,1.44,1.44,0,0,0-1.21-.5,1.88,1.88,0,0,0-1.62.69,3.58,3.58,0,0,0-.51,2.12Zm14.58,0-.27-1.17h-.1a2.66,2.66,0,0,1-1.12,1,3.76,3.76,0,0,1-1.67.36,3.26,3.26,0,0,1-2.42-.81,3.35,3.35,0,0,1-.8-2.44V27.43h1.91v5.5a2.38,2.38,0,0,0,.42,1.54,1.61,1.61,0,0,0,1.32.51,2.07,2.07,0,0,0,1.75-.71,3.89,3.89,0,0,0,.56-2.39V27.43h1.91v8.93Zm12.05,0h-1.91V30.87a2.44,2.44,0,0,0-.41-1.54,1.61,1.61,0,0,0-1.32-.51,2.1,2.1,0,0,0-1.76.71,3.93,3.93,0,0,0-.56,2.38v4.45h-1.9V27.43h1.49L293,28.6h.1a2.64,2.64,0,0,1,1.15-1,3.83,3.83,0,0,1,1.64-.35q3.22,0,3.22,3.27Zm4.53,0h-1.89V27.43h1.89Zm-2-11.29A1,1,0,0,1,302.74,24a.95.95,0,0,1,1.05,1.06,1,1,0,0,1-1.05,1,1,1,0,0,1-1.08-1ZM310,36.52a3.92,3.92,0,0,1-3.08-1.18,4.91,4.91,0,0,1-1.06-3.4,5,5,0,0,1,1.1-3.46,4.1,4.1,0,0,1,3.19-1.21,6.1,6.1,0,0,1,2.54.52l-.57,1.53a5.82,5.82,0,0,0-2-.47c-1.54,0-2.31,1-2.31,3.08a3.69,3.69,0,0,0,.57,2.25,2,2,0,0,0,1.69.76,4.84,4.84,0,0,0,2.4-.63V36a3.87,3.87,0,0,1-1.08.43A7,7,0,0,1,310,36.52Zm10.17-.16-.38-1.25h-.07a3.49,3.49,0,0,1-1.3,1.11,4,4,0,0,1-1.68.3,2.85,2.85,0,0,1-2.05-.71,2.69,2.69,0,0,1-.74-2,2.34,2.34,0,0,1,1-2.08,5.84,5.84,0,0,1,3.12-.77l1.54-.05v-.47a1.79,1.79,0,0,0-.4-1.28,1.61,1.61,0,0,0-1.24-.43,4.38,4.38,0,0,0-1.31.2,10.88,10.88,0,0,0-1.21.48L314.85,28a6.82,6.82,0,0,1,1.59-.57,7.47,7.47,0,0,1,1.63-.2,3.86,3.86,0,0,1,2.57.74,2.9,2.9,0,0,1,.87,2.33v6Zm-2.83-1.3a2.37,2.37,0,0,0,1.66-.57,2.1,2.1,0,0,0,.62-1.62V32.1l-1.14,0a4.1,4.1,0,0,0-2,.45,1.36,1.36,0,0,0-.61,1.22,1.23,1.23,0,0,0,.35.93A1.54,1.54,0,0,0,317.33,35.06ZM327.48,35a4.73,4.73,0,0,0,1.39-.21v1.42a3.3,3.3,0,0,1-.81.23,4.93,4.93,0,0,1-1,.1c-1.79,0-2.69-1-2.69-2.84V28.87h-1.22V28l1.31-.7.64-1.88h1.17v2h2.54v1.44h-2.54v4.77a1.39,1.39,0,0,0,.34,1A1.24,1.24,0,0,0,327.48,35Zm5.07,1.38h-1.89V27.43h1.89Zm-2-11.29A1,1,0,0,1,331.62,24a.95.95,0,0,1,1.05,1.06,1,1,0,0,1-1.05,1,1,1,0,0,1-1.08-1Zm12.58,11.29h-1.91V30.87a2.38,2.38,0,0,0-.41-1.54,1.61,1.61,0,0,0-1.32-.51,2.11,2.11,0,0,0-1.76.71,3.93,3.93,0,0,0-.56,2.38v4.45h-1.89V27.43h1.48L337,28.6h.09a2.64,2.64,0,0,1,1.15-1,3.87,3.87,0,0,1,1.65-.35q3.21,0,3.21,3.27Zm10.18-8.93v1l-1.53.28a2.41,2.41,0,0,1,.35.7,2.74,2.74,0,0,1,.14.87,2.66,2.66,0,0,1-1,2.17,4,4,0,0,1-2.62.79,4.54,4.54,0,0,1-.77-.06,1.07,1.07,0,0,0-.62.88.49.49,0,0,0,.29.46,2.32,2.32,0,0,0,1.05.16h1.56a3.46,3.46,0,0,1,2.24.63,2.18,2.18,0,0,1,.77,1.81A2.65,2.65,0,0,1,352,39.5a6.57,6.57,0,0,1-3.62.83,5,5,0,0,1-2.78-.65,2.08,2.08,0,0,1-1-1.84,1.93,1.93,0,0,1,.52-1.38,2.71,2.71,0,0,1,1.46-.78,1.39,1.39,0,0,1-.63-.52,1.35,1.35,0,0,1-.25-.76,1.28,1.28,0,0,1,.29-.84,2.92,2.92,0,0,1,.84-.69,2.47,2.47,0,0,1-1.13-1,2.86,2.86,0,0,1-.43-1.58,2.82,2.82,0,0,1,.91-2.25,3.91,3.91,0,0,1,2.62-.8,7.45,7.45,0,0,1,.79.05,5.52,5.52,0,0,1,.63.11Zm-7,10.31a1.05,1.05,0,0,0,.56.95,3,3,0,0,0,1.55.33,4.8,4.8,0,0,0,2.31-.44,1.35,1.35,0,0,0,.76-1.18.88.88,0,0,0-.42-.83,3.37,3.37,0,0,0-1.54-.25h-1.44a2,2,0,0,0-1.3.39A1.24,1.24,0,0,0,346.28,37.74Zm.82-7.42a1.78,1.78,0,0,0,.43,1.29,1.64,1.64,0,0,0,1.24.45c1.1,0,1.65-.58,1.65-1.76A2,2,0,0,0,350,29a1.88,1.88,0,0,0-2.49,0A2,2,0,0,0,347.1,30.32Zm21.65,6h-1.93V31h-5.44v5.32h-1.93V24.56h1.93v4.82h5.44V24.56h1.93Zm6.81.16a4.34,4.34,0,0,1-3.26-1.22A4.61,4.61,0,0,1,371.13,32a5,5,0,0,1,1.09-3.44,3.76,3.76,0,0,1,3-1.25A3.68,3.68,0,0,1,378,28.34a4.09,4.09,0,0,1,1,3v1h-5.95a3,3,0,0,0,.7,2,2.48,2.48,0,0,0,1.87.7,6.78,6.78,0,0,0,1.47-.15,8,8,0,0,0,1.47-.5v1.54a5.84,5.84,0,0,1-1.41.47A8.65,8.65,0,0,1,375.56,36.52Zm-.35-7.81a1.93,1.93,0,0,0-1.45.57,2.75,2.75,0,0,0-.65,1.67h4.06a2.45,2.45,0,0,0-.54-1.67A1.82,1.82,0,0,0,375.21,28.71Zm11.56,7.65-.38-1.25h-.06a3.57,3.57,0,0,1-1.3,1.11,4.07,4.07,0,0,1-1.68.3,2.88,2.88,0,0,1-2.06-.71,2.68,2.68,0,0,1-.73-2,2.35,2.35,0,0,1,1-2.08A5.86,5.86,0,0,1,384.7,31l1.55-.05v-.47a1.83,1.83,0,0,0-.4-1.28,1.61,1.61,0,0,0-1.24-.43,4.44,4.44,0,0,0-1.32.2,11.72,11.72,0,0,0-1.21.48L381.47,28a6.51,6.51,0,0,1,1.59-.57,7.4,7.4,0,0,1,1.63-.2,3.9,3.9,0,0,1,2.57.74,2.9,2.9,0,0,1,.87,2.33v6ZM384,35.06a2.35,2.35,0,0,0,1.65-.57,2.1,2.1,0,0,0,.63-1.62V32.1l-1.15,0a4.1,4.1,0,0,0-1.95.45,1.38,1.38,0,0,0-.61,1.22,1.2,1.2,0,0,0,.36.93A1.52,1.52,0,0,0,384,35.06Zm8.72,1.3h-1.9V23.8h1.9Zm6-1.38a4.83,4.83,0,0,0,1.39-.21v1.42a3.3,3.3,0,0,1-.81.23,5.07,5.07,0,0,1-1,.1c-1.8,0-2.7-1-2.7-2.84V28.87h-1.22V28l1.31-.7.65-1.88h1.17v2H400v1.44h-2.54v4.77a1.35,1.35,0,0,0,.34,1A1.24,1.24,0,0,0,398.71,35Zm11,1.38h-1.9V30.87a2.38,2.38,0,0,0-.42-1.54,1.59,1.59,0,0,0-1.32-.51,2.1,2.1,0,0,0-1.75.71,3.92,3.92,0,0,0-.56,2.4v4.43h-1.9V23.8h1.9V27a13.84,13.84,0,0,1-.1,1.64h.12a2.61,2.61,0,0,1,1.08-1,3.44,3.44,0,0,1,1.61-.36q3.24,0,3.24,3.27Zm14.46,0L423,33.08H418.5l-1.15,3.28h-2l4.42-11.85h2.1l4.41,11.85Zm-1.69-4.94-1.1-3.21c-.08-.22-.19-.56-.34-1s-.24-.8-.29-1a18.77,18.77,0,0,1-.64,2.17l-1.06,3.08Zm12.95,4.94h-1.9V30.87a2.38,2.38,0,0,0-.42-1.54,1.61,1.61,0,0,0-1.32-.51,2.11,2.11,0,0,0-1.76.71,3.93,3.93,0,0,0-.56,2.38v4.45H427.6V27.43h1.48l.27,1.17h.1a2.62,2.62,0,0,1,1.14-1,3.9,3.9,0,0,1,1.65-.35q3.21,0,3.21,3.27Zm5.65.16a3.15,3.15,0,0,1-2.61-1.21,5.48,5.48,0,0,1-.93-3.4,5.43,5.43,0,0,1,.95-3.42,3.13,3.13,0,0,1,2.62-1.22,3.06,3.06,0,0,1,2.68,1.3h.1a11.77,11.77,0,0,1-.14-1.52V23.8h1.91V36.36h-1.49l-.33-1.17h-.09A3.05,3.05,0,0,1,441.1,36.52Zm.51-1.54a2,2,0,0,0,1.7-.65,3.43,3.43,0,0,0,.55-2.14v-.26a4,4,0,0,0-.55-2.4,2,2,0,0,0-1.72-.71,1.75,1.75,0,0,0-1.54.81,4.15,4.15,0,0,0-.54,2.31,4.07,4.07,0,0,0,.53,2.27A1.78,1.78,0,0,0,441.61,35Zm13.2-4.93h1.34a3.11,3.11,0,0,0,2-.5,1.84,1.84,0,0,0,.6-1.49,1.6,1.6,0,0,0-.65-1.44,3.6,3.6,0,0,0-2-.43h-1.28Zm0,1.59v4.72h-1.92V24.56h3.33a5.48,5.48,0,0,1,3.38.85A3.09,3.09,0,0,1,460.7,28a3.24,3.24,0,0,1-2.29,3.14l3.33,5.22h-2.2l-2.82-4.72Zm12.34,4.88a4.32,4.32,0,0,1-3.26-1.22A4.61,4.61,0,0,1,462.72,32a5,5,0,0,1,1.09-3.44,3.76,3.76,0,0,1,3-1.25,3.68,3.68,0,0,1,2.79,1.07,4.09,4.09,0,0,1,1,3v1h-5.95a3,3,0,0,0,.7,2,2.48,2.48,0,0,0,1.87.7,6.84,6.84,0,0,0,1.47-.15,7.91,7.91,0,0,0,1.46-.5v1.54a5.77,5.77,0,0,1-1.4.47A8.65,8.65,0,0,1,467.15,36.52Zm-.35-7.81a1.93,1.93,0,0,0-1.45.57A2.75,2.75,0,0,0,464.7,31h4.05a2.4,2.4,0,0,0-.53-1.67A1.82,1.82,0,0,0,466.8,28.71Zm12,5.1a2.35,2.35,0,0,1-.95,2,4.62,4.62,0,0,1-2.73.7,6.42,6.42,0,0,1-2.86-.54V34.34a7,7,0,0,0,2.93.72c1.16,0,1.75-.35,1.75-1.05a.84.84,0,0,0-.2-.57,2.33,2.33,0,0,0-.63-.46,9.19,9.19,0,0,0-1.24-.55,5.77,5.77,0,0,1-2.09-1.2,2.22,2.22,0,0,1-.54-1.55,2.06,2.06,0,0,1,.92-1.78,4.43,4.43,0,0,1,2.52-.63,7.07,7.07,0,0,1,3,.64L478,29.34a6.57,6.57,0,0,0-2.43-.6c-1,0-1.5.28-1.5.85a.86.86,0,0,0,.39.71,8.24,8.24,0,0,0,1.71.8,8,8,0,0,1,1.61.79,2.35,2.35,0,0,1,.74.81A2.39,2.39,0,0,1,478.77,33.81Zm6,2.71a4.34,4.34,0,0,1-3.26-1.22A4.61,4.61,0,0,1,480.29,32a5,5,0,0,1,1.09-3.44,4.2,4.2,0,0,1,5.79-.18,4.13,4.13,0,0,1,1,3v1h-5.95a3,3,0,0,0,.7,2,2.5,2.5,0,0,0,1.87.7,6.78,6.78,0,0,0,1.47-.15,8,8,0,0,0,1.47-.5v1.54a5.84,5.84,0,0,1-1.41.47A8.65,8.65,0,0,1,484.72,36.52Zm-.35-7.81a1.93,1.93,0,0,0-1.45.57,2.75,2.75,0,0,0-.65,1.67h4.06a2.41,2.41,0,0,0-.54-1.67A1.8,1.8,0,0,0,484.37,28.71Zm11.56,7.65-.38-1.25h-.06a3.57,3.57,0,0,1-1.3,1.11,4.07,4.07,0,0,1-1.68.3,2.88,2.88,0,0,1-2.06-.71,2.68,2.68,0,0,1-.73-2,2.35,2.35,0,0,1,1-2.08,5.88,5.88,0,0,1,3.13-.77l1.54-.05v-.47a1.83,1.83,0,0,0-.4-1.28,1.61,1.61,0,0,0-1.24-.43,4.44,4.44,0,0,0-1.32.2,11.72,11.72,0,0,0-1.21.48L490.63,28a6.51,6.51,0,0,1,1.59-.57,7.4,7.4,0,0,1,1.63-.2,3.9,3.9,0,0,1,2.57.74,2.9,2.9,0,0,1,.87,2.33v6Zm-2.82-1.3a2.37,2.37,0,0,0,1.66-.57,2.13,2.13,0,0,0,.62-1.62V32.1l-1.15,0a4,4,0,0,0-1.94.45,1.36,1.36,0,0,0-.61,1.22,1.19,1.19,0,0,0,.35.93A1.52,1.52,0,0,0,493.11,35.06Zm11.35-7.79a4.88,4.88,0,0,1,1,.08l-.19,1.77a3.33,3.33,0,0,0-.84-.1,2.43,2.43,0,0,0-1.84.74,2.7,2.7,0,0,0-.71,1.93v4.67h-1.89V27.43h1.48l.25,1.58h.1a3.39,3.39,0,0,1,1.16-1.27A2.73,2.73,0,0,1,504.46,27.27Zm6.2,9.25a4,4,0,0,1-3.08-1.18,5,5,0,0,1-1.05-3.4,5,5,0,0,1,1.1-3.46,4.1,4.1,0,0,1,3.19-1.21,6.13,6.13,0,0,1,2.54.52l-.57,1.53a5.88,5.88,0,0,0-2-.47c-1.54,0-2.32,1-2.32,3.08a3.69,3.69,0,0,0,.58,2.25,2,2,0,0,0,1.69.76,4.84,4.84,0,0,0,2.4-.63V36a3.82,3.82,0,0,1-1.09.43A6.88,6.88,0,0,1,510.66,36.52Zm12.44-.16h-1.9V30.87a2.38,2.38,0,0,0-.42-1.54,1.61,1.61,0,0,0-1.32-.51,2.12,2.12,0,0,0-1.76.71,4,4,0,0,0-.56,2.4v4.43h-1.89V23.8h1.89V27a16.18,16.18,0,0,1-.09,1.64h.12a2.61,2.61,0,0,1,1.08-1,3.41,3.41,0,0,1,1.61-.36q3.24,0,3.24,3.27Z" transform="translate(-1)"/></svg>