<?xml version="1.0" encoding="UTF-8"?>
<svg width="11px" height="11px" viewBox="0 0 11 11" version="1.1" xmlns="http://www.w3.org/2000/svg" xmlns:xlink="http://www.w3.org/1999/xlink">
    <!-- Generator: sketchtool 55.2 (78181) - https://sketchapp.com -->
    <title>72668578-806C-4E0E-BF46-4627AA9439E6@1.5x</title>
    <desc>Created with sketchtool.</desc>
    <g id="Page-1" stroke="none" stroke-width="1" fill="none" fill-rule="evenodd">
        <g id="Data-Portal_KB" transform="translate(-1131.000000, -153.000000)" fill="#FFFFFF">
            <g id="Main-content" transform="translate(-1.000000, 116.000000)">
                <g id="People-chunk" transform="translate(325.220000, 0.000000)">
                    <g id="Data-Topics" transform="translate(0.780000, 0.000000)">
                        <g id="Internal-Header">
                            <g id="Back" transform="translate(578.000000, 31.000000)">
                                <g id="Helper-Filters">
                                    <g id="search">
                                        <path d="M238.817218,15.9588477 L236.119507,13.2578875 C237.475898,11.4924554 237.340259,8.94238683 235.71259,7.32784636 C234.8234,6.43758573 233.678004,6 232.517536,6 C231.357068,6 230.211671,6.43758573 229.322481,7.32784636 C227.559173,9.09327846 227.559173,11.9602195 229.322481,13.7256516 C230.211671,14.6159122 231.357068,15.0534979 232.517536,15.0534979 C233.48208,15.0534979 234.446625,14.7517147 235.245389,14.133059 L237.958171,16.81893 C238.078739,16.9396433 238.229449,17 238.39523,17 C238.54594,17 238.711721,16.9396433 238.832289,16.81893 C239.058355,16.5925926 239.058355,16.2002743 238.817218,15.9588477 Z M232.532607,13.8312757 C231.643417,13.8312757 230.829582,13.484225 230.1966,12.8655693 C228.915564,11.5829904 228.915564,9.48559671 230.1966,8.18792867 C230.814511,7.56927298 231.643417,7.22222222 232.532607,7.22222222 C233.421796,7.22222222 234.235631,7.56927298 234.868613,8.18792867 C235.501596,8.80658436 235.833158,9.63648834 235.833158,10.526749 C235.833158,11.4170096 235.486525,12.2318244 234.868613,12.8655693 C234.250702,13.4993141 233.406725,13.8312757 232.532607,13.8312757 Z" id="searchWhite" transform="translate(233.500000, 11.500000) scale(-1, 1) translate(-233.500000, -11.500000) "></path>
                                    </g>
                                </g>
                            </g>
                        </g>
                    </g>
                </g>
            </g>
        </g>
    </g>
</svg>