<?xml version="1.0" encoding="UTF-8"?>
<svg width="26px" height="27px" viewBox="0 0 26 27" version="1.1" xmlns="http://www.w3.org/2000/svg" xmlns:xlink="http://www.w3.org/1999/xlink">
    <!-- Generator: sketchtool 55.2 (78181) - https://sketchapp.com -->
    <title>9CFF6CAF-8396-45AA-B69A-C2B920F56964</title>
    <desc>Created with sketchtool.</desc>
    <g id="Page-1" stroke="none" stroke-width="1" fill="none" fill-rule="evenodd">
        <g id="DATA-PORTAL.2" transform="translate(-1160.000000, -886.000000)">
            <g id="Bottom-filler" transform="translate(-1.000000, 848.000000)">
                <g id="Group-3">
                    <g transform="translate(1161.000000, 38.000000)">
                        <g id="Socials">
                            <g id="Twitter" transform="translate(0.000000, 0.823529)">
                                <g id="twitter">
                                    <path d="M0,13 C0,5.8202979 5.8202979,0 13,0 C20.1797021,0 26,5.8202979 26,13 C26,20.1797021 20.1797021,26 13,26 C5.8202979,26 0,20.1797021 0,13 Z" id="Twitter" fill="#FFFFFF" opacity="0.635881696"></path>
                                    <path d="M13.2824441,10.844341 L13.3104907,11.3068167 L12.843047,11.250187 C11.1415517,11.0331066 9.65508054,10.2969208 8.39298239,9.06050627 L7.77595664,8.44701814 L7.61702576,8.90005553 C7.28046625,9.90995138 7.49549038,10.9764769 8.19665602,11.6937861 C8.57061102,12.0901938 8.48647114,12.1468235 7.84139876,11.9108665 C7.61702576,11.8353603 7.42069938,11.7787306 7.40200163,11.8070454 C7.3365595,11.8731134 7.56093251,12.7319968 7.73856113,13.0717748 C7.98163189,13.5436888 8.47712227,14.0061644 9.01935703,14.2798745 L9.47745191,14.496955 L8.93521715,14.5063932 C8.41168014,14.5063932 8.39298239,14.5158315 8.44907564,14.7140354 C8.63605315,15.3275235 9.37461428,15.9787647 10.1973153,16.2619131 L10.7769456,16.460117 L10.2721063,16.7621419 C9.52419628,17.1963027 8.64540202,17.441698 7.76660776,17.4605745 C7.34590838,17.4700128 7,17.5077659 7,17.5360808 C7,17.6304636 8.14056277,18.1590072 8.8043329,18.3666493 C10.7956433,18.9801375 13.1609087,18.7158656 14.937195,17.6682167 C16.1992931,16.9225926 17.4613913,15.4407828 18.0503704,14.0061644 C18.3682322,13.2416639 18.6860939,11.8447986 18.6860939,11.1746808 C18.6860939,10.7405199 18.7141405,10.6838903 19.2376775,10.1647849 C19.5461904,9.86275998 19.8360055,9.53242022 19.8920988,9.43803743 C19.9855875,9.25871013 19.9762387,9.25871013 19.499446,9.41916087 C18.7047917,9.70230924 18.5926052,9.66455613 18.9852579,9.23983357 C19.275073,8.93780865 19.6209814,8.39038847 19.6209814,8.22993772 C19.6209814,8.20162289 19.4807483,8.24881428 19.3218174,8.33375879 C19.1535377,8.42814158 18.7795827,8.56971577 18.4991164,8.65466028 L17.9942771,8.81511102 L17.5361823,8.50364781 C17.2837626,8.33375879 16.9285054,8.14499321 16.7415279,8.08836354 C16.2647352,7.95622763 15.535523,7.97510419 15.1054747,8.12611665 C13.9368653,8.55083921 13.1983042,9.64567957 13.2824441,10.844341 Z" id="Path" fill="#23272B"></path>
                                </g>
                            </g>
                        </g>
                    </g>
                </g>
            </g>
        </g>
    </g>
</svg>